<?xml version="1.0" encoding="utf-8"?>
<!-- Generator: Adobe Illustrator 26.0.1, SVG Export Plug-In . SVG Version: 6.00 Build 0)  -->
<svg version="1.1" id="Capa_1" xmlns="http://www.w3.org/2000/svg" xmlns:xlink="http://www.w3.org/1999/xlink" x="0px" y="0px"
	 viewBox="0 0 150 150" style="enable-background:new 0 0 150 150;" xml:space="preserve">
<style type="text/css">
	.st0{fill:#999999;}
	.st1{fill:#FAFCFB;}
</style>
<path class="st0" d="M141.4,75.1c0.1,36.6-29.6,66.4-66.2,66.5C38.5,141.7,8.8,112,8.7,75.4C8.6,38.8,38.3,9,74.9,8.9
	C111.6,8.8,141.3,38.5,141.4,75.1z"/>
<path class="st1" d="M114.1,58.7c-6.3-2.8-9.8-5.6-11.7-8l0-4.2c0-1.2-1-2.3-2.3-2.3c0,0,0,0,0,0c-1.2,0-2.3,1-2.3,2.3l0.1,42.1
	c-2.2-1.1-4.8-1.4-7.5-0.8c-5.7,1.3-9.4,6.4-8.2,11.3c1.1,5,6.7,8,12.3,6.7c4.4-1,7.5-4.2,8.3-7.9l0-3.3c0,0,0-0.1,0-0.1
	c-0.1-0.4-0.2-0.7-0.3-1l-0.1-33.9c2.9,3,7,4.5,8.8,7c3.5,4.9-3.2,14.5-2.2,15.4C110.4,83.3,129.8,65.6,114.1,58.7z"/>
<path class="st1" d="M48.5,95.2h-6.9c-1.4,0-2.6-1.2-2.6-2.6V59.3c0-1.4,1.2-2.6,2.6-2.6h6.9c1.4,0,2.6,1.2,2.6,2.6v33.4
	C51,94.1,49.9,95.2,48.5,95.2z"/>
<path class="st1" d="M67.7,95.2h-6.9c-1.4,0-2.6-1.2-2.6-2.6V59.3c0-1.4,1.2-2.6,2.6-2.6h6.9c1.4,0,2.6,1.2,2.6,2.6v33.4
	C70.3,94.1,69.2,95.2,67.7,95.2z"/>
</svg>
