<?xml version="1.0" encoding="utf-8"?>
<!-- Generator: Adobe Illustrator 27.5.0, SVG Export Plug-In . SVG Version: 6.00 Build 0)  -->
<svg version="1.1" id="Capa_1" xmlns="http://www.w3.org/2000/svg" xmlns:xlink="http://www.w3.org/1999/xlink" x="0px" y="0px"
	 viewBox="0 0 120 120" style="enable-background:new 0 0 120 120;" xml:space="preserve">
<style type="text/css">
	.st0{fill:#E6E6E6;}
	.st1{fill:#FFFFFF;}
	.st2{fill:#1A1A1A;}
	.st3{fill:#DDC190;}
	.st4{fill:none;stroke:#DDC190;stroke-width:1.0046;stroke-miterlimit:10;}
	.st5{fill:none;stroke:#DDC190;stroke-width:0.5177;stroke-miterlimit:10;}
	.st6{fill:#999999;}
	.st7{fill-rule:evenodd;clip-rule:evenodd;fill:#FFFFFF;}
	.st8{fill-rule:evenodd;clip-rule:evenodd;fill:#CCCCCC;}
	.st9{fill:#808080;}
	.st10{fill:none;stroke:#808080;stroke-miterlimit:10;}
	.st11{fill:none;stroke:#DDC190;stroke-width:2.7206;stroke-miterlimit:10;}
	.st12{fill:none;stroke:#DDC190;stroke-width:2.7206;stroke-linecap:round;stroke-miterlimit:10;}
</style>
<g>
	<path class="st3" d="M84.5,94.7c5.3-1.8,8.9-6.7,8.9-12.1c0-9,0-20.9,0-33c0-6.9-6-12.7-13.4-12.9c-0.7,0-1.4,0-2.1,0l-1.6,0l0-1.4
		c0-0.6,0-1.3,0-1.9c0-0.7-0.4-1.3-0.9-1.7c-0.6-0.4-1.4-0.5-2.2-0.3c-1,0.3-1.5,1.1-1.6,2.2c0,0.6,0,1.2,0,1.8l0,1.4H47.7l0-1.4
		c0-0.6,0-1.2,0-1.8c0-0.7-0.4-1.4-0.9-1.8c-0.6-0.4-1.3-0.5-2.1-0.3c-0.9,0.3-1.6,1.1-1.6,2c0,0.6,0,1.2,0,1.9l0,1.4l-1.6,0
		c-0.7,0-1.4,0-2.1,0c-6.2,0.1-11.5,4.1-13.1,9.8c-0.1,0.5-0.2,0.9-0.3,1.4l-0.1,0.7l0,35.2l0.1,0.6c0.1,0.5,0.2,1,0.4,1.5
		c1.5,5.1,6,8.9,11.6,9.5c0.1,0,0.3,0.1,0.4,0.1l0.1,0h42.5c0.4-0.1,0.8-0.2,1.1-0.2C82.9,95.1,83.7,94.9,84.5,94.7z M30.9,47.2
		c1.2-3.7,4.7-6.1,8.9-6.1c6.5,0,13,0,19.5,0l9,0l3.4,0c2.6,0,5.2,0,7.8,0c4.7,0,8.4,3,9.1,7.3c0.2,0.9,0.1,1.9,0.1,2.8
		c0,0.4,0,0.8,0,1.3V53H30.5l0-0.5c0-0.5,0-0.9,0-1.4C30.5,49.8,30.5,48.5,30.9,47.2z M79.4,91.1h-3.3c-6.7,0-13.4,0-20,0
		c-5.4,0-10.8,0-16.2,0c-4.8,0-8.4-2.9-9.2-7.3c-0.1-0.6-0.1-1.1-0.1-1.6c0-6.2,0-12.4,0-18.6v-6.2h58.1l0.1,0.7c0,0.2,0,0.3,0,0.5
		l0,5.8c0,6,0,12,0,18c0,4.4-3.1,7.9-7.7,8.7C80.5,91.1,80,91.1,79.4,91.1z"/>
	<path class="st3" d="M58.7,74.9c-1.9,0-3.5-1.5-3.5-3.4c0-1.9,1.6-3.4,3.6-3.3c1.9,0,3.5,1.5,3.5,3.3
		C62.2,73.4,60.6,74.9,58.7,74.9"/>
	<path class="st3" d="M50.4,71.5c0,1.9-1.6,3.4-3.5,3.4c-1.9,0-3.5-1.5-3.5-3.4c0-1.8,1.6-3.3,3.5-3.3
		C48.9,68.2,50.4,69.7,50.4,71.5"/>
	<path class="st3" d="M66.9,71.5c0-1.9,1.6-3.4,3.5-3.3c1.9,0,3.5,1.5,3.5,3.3c0,1.8-1.6,3.4-3.5,3.4C68.5,74.9,66.9,73.4,66.9,71.5
		"/>
</g>
</svg>
