<?xml version="1.0" encoding="utf-8"?>
<!-- Generator: Adobe Illustrator 27.5.0, SVG Export Plug-In . SVG Version: 6.00 Build 0)  -->
<svg version="1.1" id="Capa_1" xmlns="http://www.w3.org/2000/svg" xmlns:xlink="http://www.w3.org/1999/xlink" x="0px" y="0px"
	 viewBox="0 0 120 120" style="enable-background:new 0 0 120 120;" xml:space="preserve">
<style type="text/css">
	.st0{fill:#E6E6E6;}
	.st1{fill:#FFFFFF;}
	.st2{fill:#1A1A1A;}
	.st3{fill:#DDC190;}
	.st4{fill:none;stroke:#DDC190;stroke-width:1.0046;stroke-miterlimit:10;}
	.st5{fill:none;stroke:#DDC190;stroke-width:0.5177;stroke-miterlimit:10;}
	.st6{fill:#999999;}
	.st7{fill-rule:evenodd;clip-rule:evenodd;fill:#FFFFFF;}
	.st8{fill-rule:evenodd;clip-rule:evenodd;fill:#CCCCCC;}
	.st9{fill:#808080;}
	.st10{fill:none;stroke:#808080;stroke-miterlimit:10;}
	.st11{fill:none;stroke:#DDC190;stroke-width:2.7206;stroke-miterlimit:10;}
	.st12{fill:none;stroke:#DDC190;stroke-width:2.7206;stroke-linecap:round;stroke-miterlimit:10;}
</style>
<g>
	<path class="st3" d="M94.7,88.1c0,2-1.6,3.6-3.6,3.6H28.1c-2,0-3.6-1.6-3.6-3.6V51.2c0-1.9,1.6-3.5,3.5-3.5h12.4l5-12.5h28.4
		l5,12.5h12.4c1.9,0,3.5,1.6,3.5,3.5V88.1z M32,41.4h2.5v3.8H32V41.4z M91.2,45.2H80.5l-5-12.5H43.7l-5,12.5H37v-6.3h-7.5v6.3H28
		c-3.3,0-6,2.7-6,6v36.8c0,3.3,2.7,6.1,6.1,6.1h63.1c3.3,0,6.1-2.7,6.1-6.1V51.2C97.3,47.9,94.6,45.2,91.2,45.2"/>
	<path class="st3" d="M59.6,86.6c-11.1,0-20.1-9-20.1-20.1c0-11.1,9-20.1,20.1-20.1c11.1,0,20.1,9,20.1,20.1
		C79.7,77.6,70.7,86.6,59.6,86.6 M59.6,43.9C47.2,43.9,37,54.1,37,66.5C37,79,47.2,89.1,59.6,89.1c12.5,0,22.6-10.1,22.6-22.6
		C82.2,54.1,72.1,43.9,59.6,43.9"/>
	<path class="st3" d="M59.6,79.1c-6.9,0-12.5-5.6-12.5-12.5c0-6.9,5.6-12.5,12.5-12.5c6.9,0,12.5,5.6,12.5,12.5
		C72.2,73.4,66.5,79.1,59.6,79.1 M59.6,51.5c-8.3,0-15.1,6.8-15.1,15.1s6.8,15.1,15.1,15.1c8.3,0,15.1-6.8,15.1-15.1
		S67.9,51.5,59.6,51.5"/>
	<path class="st3" d="M87.2,57.7c-1.4,0-2.5-1.1-2.5-2.5c0-1.4,1.1-2.5,2.5-2.5c1.4,0,2.5,1.1,2.5,2.5
		C89.7,56.6,88.6,57.7,87.2,57.7 M87.2,50.2c-2.8,0-5,2.3-5,5c0,2.8,2.2,5,5,5c2.8,0,5-2.3,5-5C92.2,52.5,90,50.2,87.2,50.2"/>
</g>
</svg>
