<?xml version="1.0" encoding="utf-8"?>
<!-- Generator: Adobe Illustrator 27.5.0, SVG Export Plug-In . SVG Version: 6.00 Build 0)  -->
<svg version="1.1" id="Capa_1" xmlns="http://www.w3.org/2000/svg" xmlns:xlink="http://www.w3.org/1999/xlink" x="0px" y="0px"
	 viewBox="0 0 120 120" style="enable-background:new 0 0 120 120;" xml:space="preserve">
<style type="text/css">
	.st0{fill:#E6E6E6;}
	.st1{fill:#FFFFFF;}
	.st2{fill:#1A1A1A;}
	.st3{fill:#DDC190;}
	.st4{fill:none;stroke:#DDC190;stroke-width:1.0046;stroke-miterlimit:10;}
	.st5{fill:none;stroke:#DDC190;stroke-width:0.5177;stroke-miterlimit:10;}
	.st6{fill:#999999;}
	.st7{fill-rule:evenodd;clip-rule:evenodd;fill:#FFFFFF;}
	.st8{fill-rule:evenodd;clip-rule:evenodd;fill:#CCCCCC;}
	.st9{fill:#808080;}
	.st10{fill:none;stroke:#808080;stroke-miterlimit:10;}
	.st11{fill:none;stroke:#DDC190;stroke-width:2.7206;stroke-miterlimit:10;}
	.st12{fill:none;stroke:#DDC190;stroke-width:2.7206;stroke-linecap:round;stroke-miterlimit:10;}
</style>
<g>
	<path class="st3" d="M95.6,85.1L74.5,96.3V74.2c0.5-0.2,0.9-0.8,0.8-1.4c0-0.5-0.4-0.9-0.8-1.2v-30l21.1-11.2V85.1z M50.5,70.7
		c0.5,0,0.9-0.1,1.4-0.1c0.8,0,1.4-0.7,1.4-1.4c0-0.8-0.6-1.4-1.4-1.4h0c-0.4,0-0.9,0-1.3,0.1V30.5l21.1,11.2v29.9
		c-1,0-2-0.2-3.1-0.4c-0.8-0.1-1.5,0.4-1.7,1.1c-0.1,0.8,0.4,1.5,1.1,1.7c1.3,0.2,2.5,0.4,3.6,0.4v22.2l-21.1-8.7V70.7z M25.1,37.6
		l22.6-7.5v38.1c-0.6,0.1-1.2,0.2-1.8,0.4c-0.8,0.2-1.2,1-1,1.7c0.2,0.6,0.7,1.1,1.4,1.1c0.1,0,0.2,0,0.4,0c0.3-0.1,0.7-0.1,1.1-0.2
		v16.7l-22.6,7.5V37.6z M97.7,26.9c-0.4-0.3-0.9-0.3-1.4,0L73,39.2L49.7,26.9c0,0,0,0-0.1,0c-0.1,0-0.1-0.1-0.2-0.1c0,0-0.1,0-0.1,0
		c-0.1,0-0.2,0-0.2,0c0,0-0.1,0-0.1,0c-0.1,0-0.1,0-0.2,0c0,0-0.1,0-0.1,0c0,0,0,0,0,0l-25.4,8.5c-0.6,0.2-1,0.7-1,1.3v60.6
		c0,0.5,0.2,0.9,0.6,1.1c0.2,0.2,0.5,0.3,0.8,0.3c0.1,0,0.3,0,0.4-0.1L49,90.3l23.5,9.7c0,0,0,0,0.1,0c0.2,0.1,0.3,0.1,0.5,0.1
		c0.1,0,0.3,0,0.4-0.1c0,0,0.1,0,0.1,0c0.1,0,0.1,0,0.2-0.1l24-12.7c0.5-0.2,0.8-0.7,0.8-1.2V28.1C98.4,27.6,98.2,27.2,97.7,26.9"/>
	<path class="st3" d="M37.8,49.3c-2.3,0-4.2-1.9-4.2-4.2c0-2.3,1.9-4.2,4.2-4.2c2.3,0,4.2,1.9,4.2,4.2C42,47.4,40.1,49.3,37.8,49.3
		 M37.8,38c-3.9,0-7.1,3.2-7.1,7.1c0,3.4,2.4,6.3,5.6,6.9v3c0,0.8,0.6,1.4,1.4,1.4c0.8,0,1.4-0.6,1.4-1.4v-3
		c3.2-0.7,5.6-3.5,5.6-6.9C44.9,41.2,41.7,38,37.8,38"/>
	<path class="st3" d="M85.8,64.3c0.2,0.1,0.3,0.1,0.5,0.1c0.6,0,1.1-0.3,1.3-0.9c0.7-1.7,1.2-3.6,1.6-5.7c0.1-0.8-0.4-1.5-1.1-1.6
		c-0.8-0.1-1.5,0.4-1.6,1.1c-0.4,1.9-0.8,3.6-1.4,5.2C84.8,63.2,85.1,64.1,85.8,64.3"/>
	<path class="st3" d="M40.3,70.9c-1.7,1.1-3.2,2.4-4.6,4c-0.5,0.6-0.4,1.5,0.2,2c0.3,0.2,0.6,0.3,0.9,0.3c0.4,0,0.8-0.2,1.1-0.5
		c1.1-1.3,2.5-2.5,3.9-3.4c0.7-0.4,0.9-1.3,0.4-1.9C41.9,70.7,41,70.5,40.3,70.9"/>
	<path class="st3" d="M34.5,79.3c-0.7-0.3-1.5,0-1.9,0.7c-1.4,3.1-1.8,5.7-1.8,5.8c-0.1,0.8,0.4,1.5,1.2,1.6c0.1,0,0.1,0,0.2,0
		c0.7,0,1.3-0.5,1.4-1.2c0,0,0.3-2.3,1.6-5C35.5,80.4,35.2,79.6,34.5,79.3"/>
	<path class="st3" d="M79.3,72.9c0.2,0,0.4,0,0.6-0.2c1.8-0.9,3.4-2.3,4.8-3.9c0.5-0.6,0.4-1.5-0.2-2c-0.6-0.5-1.5-0.4-2,0.2
		c-1.1,1.4-2.4,2.4-3.9,3.2c-0.7,0.4-1,1.2-0.6,1.9C78.3,72.6,78.8,72.9,79.3,72.9"/>
	<path class="st3" d="M63.4,69.6c-0.6-0.3-1-0.4-1-0.5c-0.1,0-0.2-0.1-0.3-0.1c-1.5-0.4-3-0.7-4.5-0.9c-0.8-0.1-1.5,0.4-1.6,1.2
		c-0.1,0.8,0.4,1.5,1.2,1.6c1.3,0.2,2.7,0.5,4.1,0.8c0.2,0.1,0.5,0.3,1,0.5c0.2,0.1,0.4,0.1,0.5,0.1c0.6,0,1.1-0.3,1.3-0.9
		C64.5,70.8,64.1,69.9,63.4,69.6"/>
	<path class="st3" d="M88.5,53.4C88.5,53.4,88.5,53.4,88.5,53.4c0.8,0,1.5-0.6,1.5-1.3c0.1-1.4,0.1-2.8,0.1-4.3c0-0.5,0-1,0-1.5
		c0-0.8-0.7-1.4-1.4-1.4c-0.8,0-1.4,0.7-1.4,1.4c0,0.5,0,1,0,1.4c0,1.4,0,2.8-0.1,4.1C87.1,52.7,87.7,53.4,88.5,53.4"/>
	<path class="st3" d="M34,65.8c0.3,0.3,0.6,0.4,1,0.4c0.4,0,0.7-0.1,1-0.4l1.8-1.8l1.8,1.8c0.3,0.3,0.6,0.4,1,0.4
		c0.4,0,0.7-0.1,1-0.4c0.6-0.5,0.6-1.4,0-2L39.8,62l1.8-1.8c0.6-0.6,0.6-1.4,0-2c-0.6-0.6-1.4-0.6-2,0L37.8,60L36,58.2
		c-0.5-0.6-1.4-0.6-2,0c-0.6,0.6-0.6,1.4,0,2l1.8,1.8L34,63.8C33.4,64.3,33.4,65.2,34,65.8"/>
</g>
</svg>
