<?xml version="1.0" encoding="utf-8"?>
<!-- Generator: Adobe Illustrator 27.5.0, SVG Export Plug-In . SVG Version: 6.00 Build 0)  -->
<svg version="1.1" id="Capa_1" xmlns="http://www.w3.org/2000/svg" xmlns:xlink="http://www.w3.org/1999/xlink" x="0px" y="0px"
	 viewBox="0 0 120 120" style="enable-background:new 0 0 120 120;" xml:space="preserve">
<style type="text/css">
	.st0{fill:#E6E6E6;}
	.st1{fill:#FFFFFF;}
	.st2{fill:#1A1A1A;}
	.st3{fill:#DDC190;}
	.st4{fill:none;stroke:#DDC190;stroke-width:1.0046;stroke-miterlimit:10;}
	.st5{fill:none;stroke:#DDC190;stroke-width:0.5177;stroke-miterlimit:10;}
	.st6{fill:#999999;}
	.st7{fill-rule:evenodd;clip-rule:evenodd;fill:#FFFFFF;}
	.st8{fill-rule:evenodd;clip-rule:evenodd;fill:#CCCCCC;}
	.st9{fill:#808080;}
	.st10{fill:none;stroke:#808080;stroke-miterlimit:10;}
	.st11{fill:none;stroke:#DDC190;stroke-width:2.7206;stroke-miterlimit:10;}
	.st12{fill:none;stroke:#DDC190;stroke-width:2.7206;stroke-linecap:round;stroke-miterlimit:10;}
</style>
<g>
	<path class="st3" d="M52.6,47.5v-9.7l34.4-4.5V43L52.6,47.5z M77.6,81.8c-5.2,0-9.5-3.7-9.5-8.3c0-4.6,4.3-8.3,9.5-8.3
		c5.2,0,9.5,3.7,9.5,8.3C87.1,78.1,82.8,81.8,77.6,81.8 M40.7,93.7c-5.2,0-9.5-3.7-9.5-8.3c0-4.6,4.3-8.3,9.5-8.3
		c5.2,0,9.5,3.7,9.5,8.3C50.2,89.9,46,93.7,40.7,93.7 M89,31c-0.3-0.2-0.6-0.3-0.9-0.3l-36.8,4.8c-0.6,0.1-1,0.6-1,1.2V79
		c-2.2-2.6-5.6-4.3-9.5-4.3c-6.5,0-11.9,4.8-11.9,10.7c0,5.9,5.3,10.7,11.9,10.7c6.5,0,11.9-4.8,11.9-10.7c0-0.3,0-0.5,0-0.8
		c0-0.1,0-0.1,0-0.2V49.9l34.4-4.5v21.7c-2.2-2.6-5.6-4.3-9.5-4.3c-6.5,0-11.9,4.8-11.9,10.7c0,5.9,5.3,10.7,11.9,10.7
		c6.5,0,11.8-4.7,11.9-10.5c0,0,0,0,0,0V31.9C89.4,31.6,89.3,31.3,89,31"/>
	<path class="st4" d="M52.6,47.5v-9.7l34.4-4.5V43L52.6,47.5z M77.6,81.8c-5.2,0-9.5-3.7-9.5-8.3c0-4.6,4.3-8.3,9.5-8.3
		c5.2,0,9.5,3.7,9.5,8.3C87.1,78.1,82.8,81.8,77.6,81.8z M40.7,93.7c-5.2,0-9.5-3.7-9.5-8.3c0-4.6,4.3-8.3,9.5-8.3
		c5.2,0,9.5,3.7,9.5,8.3C50.2,89.9,46,93.7,40.7,93.7z M89,31c-0.3-0.2-0.6-0.3-0.9-0.3l-36.8,4.8c-0.6,0.1-1,0.6-1,1.2V79
		c-2.2-2.6-5.6-4.3-9.5-4.3c-6.5,0-11.9,4.8-11.9,10.7c0,5.9,5.3,10.7,11.9,10.7c6.5,0,11.9-4.8,11.9-10.7c0-0.3,0-0.5,0-0.8
		c0-0.1,0-0.1,0-0.2V49.9l34.4-4.5v21.7c-2.2-2.6-5.6-4.3-9.5-4.3c-6.5,0-11.9,4.8-11.9,10.7c0,5.9,5.3,10.7,11.9,10.7
		c6.5,0,11.8-4.7,11.9-10.5c0,0,0,0,0,0V31.9C89.4,31.6,89.3,31.3,89,31z"/>
</g>
</svg>
