<?xml version="1.0" encoding="utf-8"?>
<!-- Generator: Adobe Illustrator 27.5.0, SVG Export Plug-In . SVG Version: 6.00 Build 0)  -->
<svg version="1.1" id="Capa_1" xmlns="http://www.w3.org/2000/svg" xmlns:xlink="http://www.w3.org/1999/xlink" x="0px" y="0px"
	 viewBox="0 0 120 120" style="enable-background:new 0 0 120 120;" xml:space="preserve">
<style type="text/css">
	.st0{fill:#E6E6E6;}
	.st1{fill:#FFFFFF;}
	.st2{fill:#1A1A1A;}
	.st3{fill:#DDC190;}
	.st4{fill:none;stroke:#DDC190;stroke-width:1.0046;stroke-miterlimit:10;}
	.st5{fill:none;stroke:#DDC190;stroke-width:0.5177;stroke-miterlimit:10;}
	.st6{fill:#999999;}
	.st7{fill-rule:evenodd;clip-rule:evenodd;fill:#FFFFFF;}
	.st8{fill-rule:evenodd;clip-rule:evenodd;fill:#CCCCCC;}
	.st9{fill:#808080;}
	.st10{fill:none;stroke:#808080;stroke-miterlimit:10;}
	.st11{fill:none;stroke:#DDC190;stroke-width:2.7206;stroke-miterlimit:10;}
	.st12{fill:none;stroke:#DDC190;stroke-width:2.7206;stroke-linecap:round;stroke-miterlimit:10;}
</style>
<g>
	<path class="st3" d="M59.9,97.8C41.2,97.8,26,82.4,26,63.4C26,44.4,41.2,29,59.9,29s33.9,15.4,33.9,34.4
		C93.8,82.4,78.6,97.8,59.9,97.8z M59.9,32.5c-16.8,0-30.4,13.9-30.4,30.9c0,17.1,13.7,30.9,30.4,30.9c16.8,0,30.4-13.9,30.4-30.9
		C90.3,46.3,76.7,32.5,59.9,32.5z"/>
	<g>
		<path class="st3" d="M53.1,55.3v-5L70.8,48v5L53.1,55.3z M65.9,73c-2.7,0-4.9-1.9-4.9-4.3c0-2.4,2.2-4.3,4.9-4.3
			c2.7,0,4.9,1.9,4.9,4.3C70.8,71.1,68.6,73,65.9,73 M46.9,79.2c-2.7,0-4.9-1.9-4.9-4.3c0-2.4,2.2-4.3,4.9-4.3
			c2.7,0,4.9,1.9,4.9,4.3C51.8,77.2,49.6,79.2,46.9,79.2 M71.8,46.9c-0.1-0.1-0.3-0.2-0.5-0.1l-19,2.5c-0.3,0-0.5,0.3-0.5,0.6v21.8
			c-1.1-1.3-2.9-2.2-4.9-2.2c-3.4,0-6.1,2.5-6.1,5.5c0,3,2.7,5.5,6.1,5.5c3.4,0,6.1-2.5,6.1-5.5c0-0.1,0-0.3,0-0.4c0,0,0-0.1,0-0.1
			V56.6l17.7-2.3v11.2c-1.1-1.3-2.9-2.2-4.9-2.2c-3.4,0-6.1,2.5-6.1,5.5c0,3,2.7,5.5,6.1,5.5c3.3,0,6.1-2.4,6.1-5.4c0,0,0,0,0,0
			V47.3C72,47.2,72,47,71.8,46.9"/>
		<path class="st5" d="M53.1,55.3v-5L70.8,48v5L53.1,55.3z M65.9,73c-2.7,0-4.9-1.9-4.9-4.3c0-2.4,2.2-4.3,4.9-4.3
			c2.7,0,4.9,1.9,4.9,4.3C70.8,71.1,68.6,73,65.9,73z M46.9,79.2c-2.7,0-4.9-1.9-4.9-4.3c0-2.4,2.2-4.3,4.9-4.3
			c2.7,0,4.9,1.9,4.9,4.3C51.8,77.2,49.6,79.2,46.9,79.2z M71.8,46.9c-0.1-0.1-0.3-0.2-0.5-0.1l-19,2.5c-0.3,0-0.5,0.3-0.5,0.6v21.8
			c-1.1-1.3-2.9-2.2-4.9-2.2c-3.4,0-6.1,2.5-6.1,5.5c0,3,2.7,5.5,6.1,5.5c3.4,0,6.1-2.5,6.1-5.5c0-0.1,0-0.3,0-0.4c0,0,0-0.1,0-0.1
			V56.6l17.7-2.3v11.2c-1.1-1.3-2.9-2.2-4.9-2.2c-3.4,0-6.1,2.5-6.1,5.5c0,3,2.7,5.5,6.1,5.5c3.3,0,6.1-2.4,6.1-5.4c0,0,0,0,0,0
			V47.3C72,47.2,72,47,71.8,46.9z"/>
	</g>
</g>
</svg>
