<?xml version="1.0" encoding="utf-8"?>
<!-- Generator: Adobe Illustrator 27.5.0, SVG Export Plug-In . SVG Version: 6.00 Build 0)  -->
<svg version="1.1" id="Capa_1" xmlns="http://www.w3.org/2000/svg" xmlns:xlink="http://www.w3.org/1999/xlink" x="0px" y="0px"
	 viewBox="0 0 120 120" style="enable-background:new 0 0 120 120;" xml:space="preserve">
<style type="text/css">
	.st0{fill:#E6E6E6;}
	.st1{fill:#FFFFFF;}
	.st2{fill:#1A1A1A;}
	.st3{fill:#DDC190;}
	.st4{fill:none;stroke:#DDC190;stroke-width:1.0046;stroke-miterlimit:10;}
	.st5{fill:none;stroke:#DDC190;stroke-width:0.5177;stroke-miterlimit:10;}
	.st6{fill:#999999;}
	.st7{fill-rule:evenodd;clip-rule:evenodd;fill:#FFFFFF;}
	.st8{fill-rule:evenodd;clip-rule:evenodd;fill:#CCCCCC;}
	.st9{fill:#808080;}
	.st10{fill:none;stroke:#808080;stroke-miterlimit:10;}
	.st11{fill:none;stroke:#DDC190;stroke-width:2.7206;stroke-miterlimit:10;}
	.st12{fill:none;stroke:#DDC190;stroke-width:2.7206;stroke-linecap:round;stroke-miterlimit:10;}
</style>
<g>
	<path class="st3" d="M94.8,60.6c-0.1-1-0.2-2-0.4-2.9C92,43.8,81.3,32.8,67.2,29.8c-1.1-0.2-2.2-0.4-3.3-0.5
		c-0.5-0.1-1.1-0.1-1.6-0.2c-0.2,0-0.3-0.1-0.5-0.1l-0.1,0h-4.1c-0.4,0.1-0.8,0.1-1.2,0.2c-0.9,0.1-1.8,0.2-2.7,0.4
		C43,31.4,34.9,36.9,29.3,45.8c-2.8,4.5-4.4,9.5-4.8,14.9c0,0.2,0,0.3-0.1,0.5l0,0.1v4c0.1,0.3,0.1,0.7,0.2,1.2
		c0.1,0.9,0.2,1.8,0.4,2.7c1.9,10.2,7.6,18.2,16.7,23.7c4.7,2.9,10.1,4.5,15.9,4.8c0.2,0,0.4,0,0.5,0.1l0.2,0l2.9,0
		c0.7-0.1,1.3-0.1,2-0.2c4.9-0.5,9.7-2,14.1-4.5c0.7-0.4,1.3-0.4,2-0.2c4.7,1.4,9.4,2.9,14.1,4.3l1.4,0.4l-0.3-1.1
		c-0.4-1.4-0.8-2.8-1.2-4.1c-1-3.6-2.1-7.2-3-10.8c-0.1-0.5-0.1-1,0.2-1.4c2.2-3.9,3.6-8,4.2-12.2c0.1-0.8,0.2-1.6,0.3-2.4l0.1-1
		l0-2.5C94.9,61.5,94.8,61,94.8,60.6z M87.3,79.1c-0.5,0.9-0.6,1.6-0.3,2.5c0.7,2.4,1.4,4.9,2.1,7.3c0.2,0.9,0.5,1.8,0.7,2.7
		c0,0.1,0,0.2,0.1,0.3l0.2,1.1l-0.9-0.3c-2.5-0.8-5-1.5-7.4-2.2l-0.9-0.3c-1-0.3-1.9-0.6-2.9-0.9c-0.3-0.1-0.4-0.1-0.7,0.1
		c-3.3,2-6.4,3.4-9.5,4.2c-2.9,0.8-5.7,1.1-8.5,1.1c-4.3,0-8.4-0.9-12.4-2.6c-10.3-4.5-16.7-12.1-18.8-22.6
		C25.7,58,29.2,48,38.3,39.8c4.9-4.3,10.9-6.9,17.9-7.7c16-1.8,31.2,8.9,34.8,24.2C92.8,64.2,91.6,71.9,87.3,79.1z"/>
	<path class="st3" d="M59.6,41.4c0,0-0.1,0-0.1,0c-6.1,0-11.8,2.3-16.1,6.6c-4.2,4.1-6.5,9.6-6.5,15.4c0,5.8,2.2,11.2,6.4,15.3
		c4.3,4.3,10,6.6,16.1,6.6c0,0,0.1,0,0.1,0c12.3,0,22.4-9.9,22.4-21.9C82,51.3,71.9,41.5,59.6,41.4z M59.6,44.4
		C59.6,44.4,59.6,44.4,59.6,44.4c0.9,0,1.8,0.6,2.7,1.7c1.4,1.9,2.4,4.1,3.1,7.3c0.1,0.4,0.2,0.7,0.2,1.1l0.3,1.2H53.4l0.1-0.7
		c0.6-3,1.4-6.2,3.4-8.9C57.8,45,58.7,44.4,59.6,44.4z M66.3,58.8V68H52.8v-9.2H66.3z M42,54.9c2.4-4.4,5.7-7.4,10.3-9.1l1.3-0.5
		L53,46.6c-1.2,2.5-2,5.2-2.6,8.7l-0.1,0.5h-8.7L42,54.9z M40.4,67.6c-0.6-2.8-0.7-5.5,0-8.4l0.1-0.4h9.2V68h-9.2L40.4,67.6z
		 M52.3,81c-4.6-1.8-7.9-4.7-10.3-9.1l-0.4-0.8h8.7l0.1,0.5c0.5,2.4,1.2,5.6,2.7,8.7l0.6,1.3L52.3,81z M61.7,81.2
		c-0.7,0.8-1.4,1.2-2.1,1.2c0,0,0,0,0,0c-0.7,0-1.5-0.4-2.2-1.2c-0.7-0.8-1.3-1.8-1.9-2.8c-1-2-1.6-4.1-2.1-6.6L53.4,71h12.4
		l-0.1,0.7c-0.4,1.9-0.8,4-1.7,5.9C63.4,78.7,62.7,80,61.7,81.2z M76.8,71.9c-2.2,4.1-5.4,7.1-9.9,9l-1.4,0.6l0.7-1.4
		c1.6-3.1,2.3-6.3,2.7-8.6l0.1-0.5h8.3L76.8,71.9z M78.3,59.2c0.6,2.8,0.7,5.6,0,8.4L78.3,68h-8.8v-9.3h8.8L78.3,59.2z M77.2,55.7
		H69l-0.1-0.5c-0.5-2.6-1.2-5.6-2.7-8.6l-0.7-1.4l1.4,0.6c4.5,1.9,7.7,4.9,9.9,9L77.2,55.7z"/>
</g>
</svg>
