<?xml version="1.0" encoding="utf-8"?>
<!-- Generator: Adobe Illustrator 27.5.0, SVG Export Plug-In . SVG Version: 6.00 Build 0)  -->
<svg version="1.1" id="Capa_1" xmlns="http://www.w3.org/2000/svg" xmlns:xlink="http://www.w3.org/1999/xlink" x="0px" y="0px"
	 viewBox="0 0 120 120" style="enable-background:new 0 0 120 120;" xml:space="preserve">
<style type="text/css">
	.st0{fill:#E6E6E6;}
	.st1{fill:#FFFFFF;}
	.st2{fill:#1A1A1A;}
	.st3{fill:#DDC190;}
	.st4{fill:none;stroke:#DDC190;stroke-width:1.0046;stroke-miterlimit:10;}
	.st5{fill:none;stroke:#DDC190;stroke-width:0.5177;stroke-miterlimit:10;}
	.st6{fill:#999999;}
	.st7{fill-rule:evenodd;clip-rule:evenodd;fill:#FFFFFF;}
	.st8{fill-rule:evenodd;clip-rule:evenodd;fill:#CCCCCC;}
	.st9{fill:#808080;}
	.st10{fill:none;stroke:#808080;stroke-miterlimit:10;}
	.st11{fill:none;stroke:#DDC190;stroke-width:2.7206;stroke-miterlimit:10;}
	.st12{fill:none;stroke:#DDC190;stroke-width:2.7206;stroke-linecap:round;stroke-miterlimit:10;}
</style>
<g>
	<path class="st3" d="M87.6,59.9H70.2V49.5h17.4V59.9z M84.1,94.7H70.2V63.4h13.9V94.7z M66.7,94.7H52.8V49.5h13.9V94.7z M43.4,41.8
		c-2.5-1.4-3.4-4.6-1.9-7.1c0.9-1.6,2.7-2.6,4.5-2.6c0.9,0,1.8,0.2,2.6,0.7c3.7,2.1,9.4,9.1,9.4,11.4c-0.4,0.2-1.2,0.4-2.8,0.4
		C50.9,44.6,45.3,42.9,43.4,41.8 M49.3,59.9H31.9V49.5h17.4V59.9z M49.3,94.7H35.4V63.4h13.9V94.7z M71,32.8
		c0.8-0.5,1.7-0.7,2.6-0.7c1.9,0,3.6,1,4.5,2.6c1.4,2.5,0.6,5.7-1.9,7.1c-2,1.1-7.5,2.8-11.8,2.8c-1.6,0-2.5-0.2-2.8-0.4
		C61.6,41.8,67.3,34.9,71,32.8 M87.6,46H75.4c1-0.4,1.9-0.8,2.6-1.2c4.2-2.4,5.6-7.7,3.2-11.9c-1.6-2.8-4.5-4.3-7.5-4.3
		c-1.5,0-3,0.4-4.3,1.2c-2.6,1.5-7.1,5.8-9.5,9.9c-2.4-4.1-6.9-8.4-9.5-9.9c-1.4-0.8-2.9-1.2-4.3-1.2c-3,0-5.9,1.6-7.5,4.3
		c-2.4,4.2-1,9.5,3.2,11.9c0.7,0.4,1.6,0.8,2.6,1.2H31.9c-1.9,0-3.5,1.6-3.5,3.5v10.4c0,1.9,1.6,3.5,3.5,3.5v31.3
		c0,1.9,1.6,3.5,3.5,3.5h48.7c1.9,0,3.5-1.6,3.5-3.5V63.4c1.9,0,3.5-1.6,3.5-3.5V49.5C91.1,47.5,89.5,46,87.6,46"/>
</g>
</svg>
