<?xml version="1.0" encoding="utf-8"?>
<!-- Generator: Adobe Illustrator 27.5.0, SVG Export Plug-In . SVG Version: 6.00 Build 0)  -->
<svg version="1.1" id="Capa_1" xmlns="http://www.w3.org/2000/svg" xmlns:xlink="http://www.w3.org/1999/xlink" x="0px" y="0px"
	 viewBox="0 0 120 120" style="enable-background:new 0 0 120 120;" xml:space="preserve">
<style type="text/css">
	.st0{fill:#E6E6E6;}
	.st1{fill:#FFFFFF;}
	.st2{fill:#1A1A1A;}
	.st3{fill:#DDC190;}
	.st4{fill:none;stroke:#DDC190;stroke-width:1.0046;stroke-miterlimit:10;}
	.st5{fill:none;stroke:#DDC190;stroke-width:0.5177;stroke-miterlimit:10;}
	.st6{fill:#999999;}
	.st7{fill-rule:evenodd;clip-rule:evenodd;fill:#FFFFFF;}
	.st8{fill-rule:evenodd;clip-rule:evenodd;fill:#CCCCCC;}
	.st9{fill:#808080;}
	.st10{fill:none;stroke:#808080;stroke-miterlimit:10;}
	.st11{fill:none;stroke:#DDC190;stroke-width:2.7206;stroke-miterlimit:10;}
	.st12{fill:none;stroke:#DDC190;stroke-width:2.7206;stroke-linecap:round;stroke-miterlimit:10;}
</style>
<path class="st3" d="M74.5,59.5c-0.3,0.6-0.1,1.3,0.5,1.7l4.2,3.1L62.8,85.2l9.4-42.2l0.1-0.5l1.6-7.2l9.5,2.8L74.5,59.5z M60,84.4
	l-9.2-41.2l7.1-2.8c0.1,0,0.1-0.1,0.2-0.1c0.6,0.2,1.2,0.4,1.9,0.4c0.7,0,1.3-0.1,1.9-0.4c0.1,0,0.1,0.1,0.2,0.1l7.1,2.8L60,84.4z
	 M40.8,64.3l4.2-3.1c0.5-0.4,0.7-1.1,0.5-1.7l-8.9-21.5l9.5-2.8l11.2,49.9L40.8,64.3z M50.5,31.5l5.2,2c-0.4,0.7-0.6,1.5-0.6,2.4
	c0,0.9,0.2,1.7,0.6,2.4l-5.2,2V31.5z M60,33.9c1.1,0,2,0.9,2,2c0,1.1-0.9,2-2,2c-1.1,0-2-0.9-2-2C58,34.8,58.9,33.9,60,33.9
	 M64.3,33.5l5.2-2v8.8l-5.2-2c0.4-0.7,0.6-1.5,0.6-2.4C64.9,35,64.7,34.2,64.3,33.5 M93.8,38.1l-21.4-6.3v-2.4
	c0-0.5-0.2-0.9-0.6-1.2c-0.4-0.3-0.9-0.3-1.3-0.1c0,0-8.4,3.3-8.5,3.3C61.3,31.1,60.6,31,60,31c-0.7,0-1.3,0.1-1.9,0.4
	c-0.1,0-8.5-3.3-8.5-3.3c-0.4-0.2-1-0.1-1.3,0.1c-0.4,0.3-0.6,0.7-0.6,1.2v2.5l-21.4,6.3c-0.8,0.2-1.2,1-1,1.8c0.2,0.8,1,1.2,1.8,1
	l6.8-2l8.6,20.7l-4.5,3.3c-0.3,0.2-0.5,0.6-0.6,1c-0.1,0.4,0.1,0.8,0.3,1.1l21,26.6v5.8c0,0.8,0.6,1.4,1.5,1.4
	c0.8,0,1.4-0.6,1.4-1.4v-5.8l21-26.6c0.2-0.3,0.3-0.7,0.3-1.1c-0.1-0.4-0.3-0.7-0.6-1l-4.5-3.3l8.6-20.7l6.8,2
	c0.8,0.2,1.6-0.2,1.8-1C95,39.1,94.5,38.3,93.8,38.1"/>
</svg>
