<?xml version="1.0" encoding="utf-8"?>
<!-- Generator: Adobe Illustrator 27.5.0, SVG Export Plug-In . SVG Version: 6.00 Build 0)  -->
<svg version="1.1" id="Capa_1" xmlns="http://www.w3.org/2000/svg" xmlns:xlink="http://www.w3.org/1999/xlink" x="0px" y="0px"
	 viewBox="0 0 120 120" style="enable-background:new 0 0 120 120;" xml:space="preserve">
<style type="text/css">
	.st0{fill:#E6E6E6;}
	.st1{fill:#FFFFFF;}
	.st2{fill:#1A1A1A;}
	.st3{fill:#DDC190;}
	.st4{fill:none;stroke:#DDC190;stroke-width:1.0046;stroke-miterlimit:10;}
	.st5{fill:none;stroke:#DDC190;stroke-width:0.5177;stroke-miterlimit:10;}
	.st6{fill:#999999;}
	.st7{fill-rule:evenodd;clip-rule:evenodd;fill:#FFFFFF;}
	.st8{fill-rule:evenodd;clip-rule:evenodd;fill:#CCCCCC;}
	.st9{fill:#808080;}
	.st10{fill:none;stroke:#808080;stroke-miterlimit:10;}
	.st11{fill:none;stroke:#DDC190;stroke-width:2.7206;stroke-miterlimit:10;}
	.st12{fill:none;stroke:#DDC190;stroke-width:2.7206;stroke-linecap:round;stroke-miterlimit:10;}
</style>
<g>
	<path class="st3" d="M36,90.1l0.6-2.6c1.2-5.1,2.2-11.3,1.7-12.4c-1.9-3.6-3-7.6-3-11.7c0-13.6,11.1-24.7,24.7-24.7
		s24.7,11,24.7,24.6c0,13.6-11.1,24.7-24.7,24.7c-3.3,0-6.7-0.7-9.9-2c-1.3-0.5-7.1,1.1-11.7,3L36,90.1z M60.1,41.5
		c-12.1,0-22,9.9-22,22c0,3.6,0.9,7.2,2.6,10.4c1,1.8,0,7.7-0.9,11.8c3.6-1.3,9.1-3.1,11.4-2.1c2.9,1.2,5.8,1.8,8.8,1.8
		c12.1,0,22-9.9,22-22C82.1,51.3,72.2,41.5,60.1,41.5z"/>
	<path class="st3" d="M59.9,78.1h-0.3c-2.5,0-4.5-2-4.5-4.5V62.5c0-2.5,2-4.5,4.5-4.5h0.3c2.5,0,4.5,2,4.5,4.5v11.2
		C64.2,76.2,62.3,78.1,59.9,78.1z M59.5,60.7c-1,0-1.7,0.8-1.7,1.7v11.2c0,1,0.8,1.7,1.7,1.7h0.3c1,0,1.7-0.8,1.8-1.8l0-11.1
		c0-1-0.8-1.7-1.7-1.7H59.5z"/>
	<path class="st3" d="M59.7,56.7c-2.4,0-4.4-2-4.4-4.4c0-2.4,2-4.4,4.4-4.4c2.4,0,4.4,2,4.4,4.4C64.1,54.7,62.1,56.7,59.7,56.7z
		 M59.7,50.6c-0.9,0-1.7,0.7-1.7,1.7s0.7,1.7,1.7,1.7s1.7-0.7,1.7-1.7S60.6,50.6,59.7,50.6z"/>
	<path class="st3" d="M30.8,64.7c-0.8,0-1.4-0.6-1.4-1.4c0-16.9,13.8-30.7,30.7-30.7c8.2,0,15.9,3.2,21.8,9c0.5,0.5,0.5,1.4,0,1.9
		c-0.5,0.5-1.4,0.5-1.9,0c-5.3-5.3-12.3-8.2-19.8-8.2c-15.4,0-28,12.5-28,28C32.1,64.1,31.5,64.7,30.8,64.7z"/>
	<path class="st3" d="M60.6,94.1c-0.7,0-1.4-0.6-1.4-1.3c0-0.8,0.6-1.4,1.3-1.4c0.4,0,0.7,0,1.1,0c0.8-0.1,1.4,0.5,1.4,1.3
		c0,0.8-0.5,1.4-1.3,1.4C61.4,94.1,61,94.1,60.6,94.1C60.6,94.1,60.6,94.1,60.6,94.1z M67.5,93.2c-0.6,0-1.2-0.4-1.3-1
		c-0.2-0.7,0.3-1.5,1-1.7c0.3-0.1,0.7-0.2,1-0.3c0.7-0.2,1.5,0.2,1.7,0.9c0.2,0.7-0.2,1.5-0.9,1.7c-0.4,0.1-0.7,0.2-1.1,0.3
		C67.7,93.2,67.6,93.2,67.5,93.2z M74,90.7c-0.5,0-1-0.3-1.2-0.7c-0.4-0.7-0.1-1.5,0.6-1.8c0.3-0.2,0.6-0.3,0.9-0.5
		c0.7-0.4,1.5-0.2,1.9,0.5c0.4,0.7,0.2,1.5-0.5,1.9c-0.3,0.2-0.7,0.4-1,0.6C74.4,90.7,74.2,90.7,74,90.7z M79.7,86.7
		c-0.4,0-0.8-0.2-1-0.5c-0.5-0.6-0.4-1.4,0.1-1.9c0.3-0.2,0.5-0.5,0.8-0.7c0.5-0.5,1.4-0.5,1.9,0c0.5,0.5,0.5,1.4,0,1.9
		c-0.3,0.3-0.6,0.5-0.9,0.8C80.4,86.6,80.1,86.7,79.7,86.7z M84.4,81.5c-0.3,0-0.5-0.1-0.8-0.2c-0.6-0.4-0.8-1.3-0.3-1.9
		c0.2-0.3,0.4-0.6,0.6-0.9c0.4-0.6,1.3-0.8,1.9-0.4c0.6,0.4,0.8,1.3,0.4,1.9c-0.2,0.3-0.4,0.7-0.7,1C85.2,81.3,84.8,81.5,84.4,81.5z
		 M87.7,75.4c-0.2,0-0.3,0-0.5-0.1c-0.7-0.3-1.1-1.1-0.8-1.8c0.1-0.3,0.3-0.7,0.4-1c0.2-0.7,1-1.1,1.7-0.8c0.7,0.2,1.1,1,0.8,1.7
		c-0.1,0.4-0.3,0.7-0.4,1.1C88.7,75.1,88.2,75.4,87.7,75.4z M89.4,68.6c-0.1,0-0.1,0-0.2,0c-0.7-0.1-1.3-0.8-1.2-1.5
		c0-0.3,0.1-0.7,0.1-1.1c0.1-0.8,0.7-1.3,1.5-1.2c0.8,0.1,1.3,0.7,1.2,1.5c0,0.4-0.1,0.8-0.1,1.2C90.7,68.1,90.1,68.6,89.4,68.6z
		 M89.5,61.7c-0.7,0-1.3-0.5-1.4-1.2c0-0.4-0.1-0.7-0.1-1.1c-0.1-0.7,0.4-1.4,1.2-1.5c0.7-0.1,1.4,0.4,1.5,1.2
		c0.1,0.4,0.1,0.8,0.1,1.2c0.1,0.8-0.5,1.4-1.2,1.5C89.6,61.7,89.6,61.7,89.5,61.7z M88,54.9c-0.6,0-1.1-0.4-1.3-0.9
		c-0.1-0.3-0.2-0.7-0.4-1c-0.3-0.7,0.1-1.5,0.8-1.8c0.7-0.3,1.5,0.1,1.8,0.8c0.1,0.4,0.3,0.7,0.4,1.1c0.2,0.7-0.1,1.5-0.8,1.7
		C88.3,54.8,88.2,54.9,88,54.9z M84.9,48.6c-0.4,0-0.9-0.2-1.2-0.6c-0.2-0.3-0.4-0.6-0.6-0.9c-0.4-0.6-0.3-1.5,0.3-1.9
		c0.6-0.4,1.5-0.3,1.9,0.3c0.2,0.3,0.4,0.6,0.7,1c0.4,0.6,0.2,1.5-0.4,1.9C85.5,48.5,85.2,48.6,84.9,48.6z"/>
</g>
</svg>
