<?xml version="1.0" encoding="utf-8"?>
<!-- Generator: Adobe Illustrator 27.5.0, SVG Export Plug-In . SVG Version: 6.00 Build 0)  -->
<svg version="1.1" id="Capa_1" xmlns="http://www.w3.org/2000/svg" xmlns:xlink="http://www.w3.org/1999/xlink" x="0px" y="0px"
	 viewBox="0 0 120 120" style="enable-background:new 0 0 120 120;" xml:space="preserve">
<style type="text/css">
	.st0{fill:#E6E6E6;}
	.st1{fill:#FFFFFF;}
	.st2{fill:#1A1A1A;}
	.st3{fill:#DDC190;}
	.st4{fill:none;stroke:#DDC190;stroke-width:1.0046;stroke-miterlimit:10;}
	.st5{fill:none;stroke:#DDC190;stroke-width:0.5177;stroke-miterlimit:10;}
	.st6{fill:#999999;}
	.st7{fill-rule:evenodd;clip-rule:evenodd;fill:#FFFFFF;}
	.st8{fill-rule:evenodd;clip-rule:evenodd;fill:#CCCCCC;}
	.st9{fill:#808080;}
	.st10{fill:none;stroke:#808080;stroke-miterlimit:10;}
	.st11{fill:none;stroke:#DDC190;stroke-width:2.7206;stroke-miterlimit:10;}
	.st12{fill:none;stroke:#DDC190;stroke-width:2.7206;stroke-linecap:round;stroke-miterlimit:10;}
</style>
<g>
	<path class="st11" d="M43.8,59.8H33.7c-3.8,0-7-3.1-7-7V42.7c0-3.8,3.1-7,7-7h10.1c3.8,0,7,3.1,7,7v10.1
		C50.8,56.6,47.7,59.8,43.8,59.8z"/>
	<line class="st12" x1="59.2" y1="42.5" x2="93.7" y2="42.5"/>
	<line class="st12" x1="59.2" y1="50.6" x2="77.7" y2="50.6"/>
	<path class="st11" d="M43.8,91H33.7c-3.8,0-7-3.1-7-7V74c0-3.8,3.1-7,7-7h10.1c3.8,0,7,3.1,7,7v10.1C50.8,87.9,47.7,91,43.8,91z"/>
	<line class="st12" x1="59.2" y1="73.8" x2="93.7" y2="73.8"/>
	<line class="st12" x1="59.2" y1="81.8" x2="77.7" y2="81.8"/>
	<path class="st3" d="M39.2,51.5l-4.5-3.9c-1-0.9-1.2-2.5-0.2-3.5c0.9-1,2.5-1.2,3.5-0.2l0.9,0.8l0.6-0.6c0.9-1,2.5-1.1,3.5-0.1
		c1,0.9,1.1,2.5,0.1,3.5L39.2,51.5z"/>
	<path class="st3" d="M39.2,84.1l-4.5-3.9c-1-0.9-1.2-2.5-0.2-3.5c0.9-1,2.5-1.2,3.5-0.2l0.9,0.8l0.6-0.6c0.9-1,2.5-1.1,3.5-0.1
		c1,0.9,1.1,2.5,0.1,3.5L39.2,84.1z"/>
</g>
</svg>
