<?xml version="1.0" encoding="utf-8"?>
<!-- Generator: Adobe Illustrator 27.5.0, SVG Export Plug-In . SVG Version: 6.00 Build 0)  -->
<svg version="1.1" id="Capa_1" xmlns="http://www.w3.org/2000/svg" xmlns:xlink="http://www.w3.org/1999/xlink" x="0px" y="0px"
	 viewBox="0 0 120 120" style="enable-background:new 0 0 120 120;" xml:space="preserve">
<style type="text/css">
	.st0{fill:#E6E6E6;}
	.st1{fill:#FFFFFF;}
	.st2{fill:#1A1A1A;}
	.st3{fill:#DDC190;}
	.st4{fill:none;stroke:#DDC190;stroke-width:1.0046;stroke-miterlimit:10;}
	.st5{fill:none;stroke:#DDC190;stroke-width:0.5177;stroke-miterlimit:10;}
	.st6{fill:#999999;}
	.st7{fill-rule:evenodd;clip-rule:evenodd;fill:#FFFFFF;}
	.st8{fill-rule:evenodd;clip-rule:evenodd;fill:#CCCCCC;}
	.st9{fill:#808080;}
	.st10{fill:none;stroke:#808080;stroke-miterlimit:10;}
	.st11{fill:none;stroke:#DDC190;stroke-width:2.7206;stroke-miterlimit:10;}
	.st12{fill:none;stroke:#DDC190;stroke-width:2.7206;stroke-linecap:round;stroke-miterlimit:10;}
</style>
<g>
	<path class="st3" d="M40.7,49.7c-0.7,0-1.2-0.6-1.2-1.2V37.2c0-0.7,0.6-1.2,1.2-1.2c0.7,0,1.2,0.6,1.2,1.2v11.2
		C42,49.1,41.4,49.7,40.7,49.7"/>
	<path class="st3" d="M44.9,49.7c-0.7,0-1.2-0.6-1.2-1.2V36.3c0-0.7,0.6-1.2,1.2-1.2c0.7,0,1.2,0.6,1.2,1.2v12.1
		C46.2,49.1,45.6,49.7,44.9,49.7"/>
	<path class="st3" d="M49.1,49.7c-0.7,0-1.2-0.6-1.2-1.2V36.3c0-0.7,0.6-1.2,1.2-1.2c0.7,0,1.2,0.6,1.2,1.2v12.1
		C50.4,49.1,49.8,49.7,49.1,49.7"/>
	<path class="st3" d="M47,36c-7.9,0-10.7,6.8-10.7,12.6v31c0,9.2,6.7,11.1,12.3,11.1h31.6c6.2,0,10.8-4.9,10.8-11.3V48.2
		c0-7.6-5-12.2-9.7-12.2H47z M80.2,93.3H48.6c-9.4,0-14.8-5-14.8-13.6v-31c0-9,5.3-15.1,13.2-15.1h34.3c5.9,0,12.2,5.6,12.2,14.7
		v31.2C93.5,87.2,87.7,93.3,80.2,93.3"/>
	<path class="st3" d="M63.7,66.8c-2.6,0-4.8-2.1-4.8-4.8c0-2.6,2.1-4.8,4.8-4.8c2.6,0,4.8,2.1,4.8,4.8
		C68.4,64.7,66.3,66.8,63.7,66.8 M63.7,52.5c-5.3,0-9.5,4.3-9.5,9.6c0,5.3,4.3,9.5,9.5,9.5c5.3,0,9.5-4.3,9.5-9.5
		C73.2,56.8,68.9,52.5,63.7,52.5"/>
	<path class="st3" d="M63.7,49.4c-7,0-12.6,5.7-12.6,12.7c0,7,5.7,12.7,12.6,12.7c7,0,12.7-5.7,12.7-12.7
		C76.3,55.1,70.6,49.4,63.7,49.4 M63.7,77.2c-8.3,0-15.1-6.8-15.1-15.1c0-8.4,6.8-15.1,15.1-15.1c8.4,0,15.1,6.8,15.1,15.1
		C78.8,70.4,72,77.2,63.7,77.2"/>
	<rect x="74.9" y="52.1" class="st3" width="17.4" height="2.7"/>
	<rect x="35.7" y="52.1" class="st3" width="16.5" height="2.6"/>
	<path class="st3" d="M85.2,46.1c0,1.5-1.2,2.7-2.7,2.7h-4.1c-1.5,0-2.7-1.2-2.7-2.7v-4.1c0-1.5,1.2-2.7,2.7-2.7h4.1
		c1.5,0,2.7,1.2,2.7,2.7V46.1z"/>
</g>
</svg>
