<?xml version="1.0" encoding="utf-8"?>
<!-- Generator: Adobe Illustrator 19.0.0, SVG Export Plug-In . SVG Version: 6.00 Build 0)  -->
<svg version="1.1" id="Capa_1" xmlns="http://www.w3.org/2000/svg" xmlns:xlink="http://www.w3.org/1999/xlink" x="0px" y="0px"
	 viewBox="-19 357 203 79" style="enable-background:new -19 357 203 79;" xml:space="preserve">
<style type="text/css">
	.st0{fill:#FFFFFF;}
</style>
<g>
	<path class="st0" d="M79.1,412.5c0.4-0.3,0.7-0.8,1.1-0.9c3.1-0.2,6.2-0.2,9.4-0.3c-0.3,1.5-0.6,3-1,4.8c1-1.1,1.7-2,2.6-2.8
		c1.8-1.7,4.1-2.5,6.6-2.5c2.8,0.1,4.3,1.9,3.7,4.6c-0.9,4.4-1.8,8.8-2.7,13.1c0,0.2-0.1,0.4-0.1,0.6c0,0.4,0.2,0.8,0.2,1.1
		c0.4-0.1,0.9-0.1,1.2-0.4c0.5-0.3,0.8-0.8,1.2-1.3c0.7-1.1,1.4-2.2,2.1-3.5c0.3,0.1,0.7,0.3,1.2,0.5c-1.1,2.2-2.3,4.3-4.2,5.9
		c-1.1,0.9-2.4,1.3-3.8,1.2c-2.6-0.2-4.2-2.3-3.7-5.4c0.5-3.4,1.3-6.8,1.9-10.1c0.2-0.9,0.4-1.9,0.6-2.8c0.1-0.4,0-1.1-0.2-1.2
		c-0.3-0.2-1-0.2-1.4,0.1c-1.2,0.9-2.5,1.8-3.4,3c-2.4,2.8-3.2,6.3-3.9,9.8c-0.4,2.1-0.9,4.2-1.4,6.4c-2.1,0-4.2,0-6.4,0
		c1.4-6.4,2.7-12.9,4.1-19.5c-1.3,0-2.4,0-3.6,0C79.3,412.8,79.2,412.6,79.1,412.5z"/>
	<path class="st0" d="M128.7,433.2c-5.3-0.1-8.8-3-9.2-7.6c-0.2-2.4,0.4-4.6,1.6-6.7c2.7-4.7,6.6-7.7,12.1-8
		c6.4-0.4,10.3,3.9,9.3,10.2C141.6,427.7,135.1,433.4,128.7,433.2z M125.7,428.8c0,1.1,0,2.1,1.1,2.7c2.1,1,4.6,0.2,5.7-1.8
		c0.6-1.1,1-2.4,1.3-3.6c0.9-3.7,1.7-7.4,2.6-11.1c0.2-0.8,0.1-1.6-0.7-2.2c-1.9-1.2-5.1-0.4-6,1.6
		C127.7,419,126.5,423.9,125.7,428.8z"/>
	<path class="st0" d="M31.8,426.3c0.3,0.2,0.6,0.4,0.9,0.6c-3.1,5.3-8.8,7.6-14.5,5.7c-4.3-1.4-6.3-5.1-5.3-10
		c1.2-5.8,6.3-10.7,12.1-11.7c2.5-0.4,4.8,0,6.8,1.7c2.8,2.4,2.3,6.8-1,8.8c-2,1.2-4.2,1.6-6.5,1.8c-0.7,0.1-1.4,0.1-2.1,0.1
		c-1.9,0.1-1.9,0.1-2.3,1.9c-0.2,1.2-0.4,2.4-0.5,3.6c-0.1,1.9,0.7,2.8,2.7,3c3.1,0.2,5.6-1.1,7.8-3.3
		C30.4,427.8,31.1,427.1,31.8,426.3z M20.3,422.2c1.6-0.2,2.9-0.4,4.2-0.6s2.1-1,2.7-2.1c0.9-1.6,1.2-3.3,1-5.1
		c-0.1-1.3-0.9-2-2.2-2c-1.8,0-3,1.1-3.5,2.6C21.7,417.2,21.1,419.6,20.3,422.2z"/>
	<path class="st0" d="M75.5,426.4c0.2,0.1,0.4,0.3,0.7,0.5c0,0.1,0,0.2,0,0.3c-3,4.4-7,6.8-12.6,5.9s-8.3-4.8-7.2-10.4
		c1.2-5.8,6.3-10.9,12.1-11.7c1.6-0.2,3.4,0.1,5,0.6c2,0.6,3.3,2.2,3.5,4.4c0.2,2.3-0.6,4.4-2.8,5.4c-2,0.9-4.2,1.2-6.3,1.8
		c-0.4,0.1-0.7,0-1.1,0.1c-3.2,0.1-3.2,0.1-3.7,3.2c-0.1,0.8-0.2,1.6-0.3,2.3c-0.1,1.8,0.8,2.8,2.6,2.9c2.6,0.2,4.8-0.6,6.8-2.3
		C73.3,428.5,74.4,427.5,75.5,426.4z M64,422c5.3,0.2,6.8-1.1,7.7-5.1c0.1-0.6,0.1-1.1,0.2-1.7c0-1,0-2-1.1-2.6
		c-1.1-0.5-2.3-0.5-3.1,0.4c-0.9,0.9-1.6,2-2,3.2C64.9,418,64.6,419.9,64,422z"/>
	<path class="st0" d="M39.8,413c-2.9,0.7-3.7,3.1-4.9,5.2c-0.4-0.1-0.8-0.3-1.1-0.4c0.9-3.8,4.5-6.9,8.1-6.9c2.7,0,4.2,1.4,3.8,4
		c-0.5,3.6-1.4,7.2-2.1,10.9c-0.2,0.9-0.4,1.9-0.4,2.8c0,1.4,0.8,2.2,2.2,2c1-0.2,2.1-0.6,2.8-1.2c3.2-2.9,4.8-6.7,5.5-10.9
		c0.2-1.1-0.2-1.7-1.4-1.8c-0.5,0-0.9-0.1-1.4-0.2c-1.7-0.5-2.5-1.9-2-3.5c0.5-1.5,2.1-2.4,3.6-1.9c1.7,0.5,2.7,1.8,2.8,3.4
		c0.1,1.5,0.1,3.2-0.2,4.7c-1,4.5-2.8,8.7-6.5,11.8c-2.2,1.8-4.7,2.8-7.6,2.2c-3.1-0.7-4.7-3.3-4-6.8c0.8-3.9,1.7-7.9,2.5-11.8
		C39.7,414.1,39.7,413.6,39.8,413z"/>
	<path class="st0" d="M109.6,412.9c-1.1,0-2.1,0-3.1,0c-0.1-0.1-0.1-0.2-0.2-0.3c0.3-0.3,0.5-0.7,0.9-0.9c3.5-2.1,6.5-4.8,9.1-8
		c0.3-0.4,1-0.6,1.5-0.8c0.1,0.1,0.2,0.2,0.3,0.3c-0.6,2.8-1.1,5.5-1.7,8.4c1.4,0,2.7,0,4,0c0.2,1-0.1,1.4-1.1,1.3
		c-1.1-0.1-2.1,0-3.3,0c-1,4.6-1.9,9-2.8,13.5c-0.2,1.1-0.5,2.2-0.6,3.3c-0.1,0.4,0.1,1,0.3,1.2c0.3,0.2,1,0.1,1.2-0.1
		c1-1.1,1.9-2.4,2.8-3.6c0.2-0.3,0.4-0.7,0.6-1.2c0.4,0.2,0.8,0.3,1.2,0.5c-1.3,3.1-2.9,5.8-6.4,6.7c-3.2,0.8-5.9-1.1-5.7-4.4
		c0.1-2.8,0.8-5.5,1.3-8.3C108.5,418,109.1,415.5,109.6,412.9z"/>
	<path class="st0" d="M149.7,433.5c-1.6-0.5-3.3-0.7-4.7-1.5c-1-0.5-1.8-1.6-2.2-2.6c-0.6-1.5,0.2-3.1,1.6-3.4
		c1.5-0.3,3,0.7,3.3,2.3c0.1,0.5,0.1,1.1,0,1.6c-0.3,1.1,0.3,1.7,1.2,1.7c1.3,0,2.8-0.1,4-0.6c1.8-0.7,2-2.7,0.7-4.1
		c-0.5-0.5-1.1-1-1.7-1.4c-1.3-0.9-2.7-1.8-4-2.8c-2-1.6-3.1-3.7-2.5-6.4c0.6-2.8,2.5-4.4,5.1-5.2c2.6-0.8,5-0.4,7.1,1.5
		c0.5,0.5,0.9,1.1,1.2,1.7c0.4,1,0.2,1.9-0.6,2.6c-0.9,0.7-1.9,0.6-2.8,0.1c-1-0.5-1-1.4-0.8-2.4c0.4-1.9,0-2.5-2-2.4
		c-0.6,0-1.2,0.1-1.7,0.3c-1.8,0.6-2.1,2.1-0.6,3.3c1.7,1.4,3.6,2.7,5.3,4.1c2,1.6,3.4,3.5,3.1,6.3c-0.4,3.8-3.8,6.7-8,7
		c-0.2,0-0.5,0-0.7,0C149.8,433.3,149.7,433.4,149.7,433.5z"/>
</g>
<g>
	<path class="st0" d="M31.1,379.8c-5.8-0.4-10.1,1.5-12.8,6.6c-0.1,0.3-0.5,0.4-0.7,0.6c-0.1-0.1-0.2-0.1-0.3-0.2
		c0.8-2.5,1.6-5.1,2.4-7.6c6.8,0,13.6,0,20.5,0c-5.8,8.2-11.5,16.3-17.2,24.5c5.6,0.6,10.1-1.1,13.4-5.5c0.3-0.4,0.5-0.7,0.8-1.1
		c0.2-0.2,0.4-0.3,0.7-0.5c0.1,0.1,0.1,0.1,0.2,0.2c-0.5,1.5-1,3.1-1.5,4.6c-0.3,1-0.4,2.3-1.1,2.8c-0.6,0.5-1.9,0.1-2.9,0.1
		c-5.9,0-11.7,0-17.6,0c-0.3,0-0.6,0-1.2,0C19.6,396.1,25.3,388,31.1,379.8z"/>
	<path class="st0" d="M84.5,404.4c2-7.1,4-14.1,6-21.3c-1.1,0-1.9,0-2.8,0c0-0.1-0.1-0.3-0.1-0.4c0.3-0.1,0.7-0.3,1-0.4
		c2.5-0.1,5-0.1,7.5-0.3c1.2-0.1,2.5-0.5,3.9-0.8c-0.7,2.7-1.5,5.4-2.2,8.1l0.1,0.1c0.2-0.3,0.4-0.7,0.7-1c1.5-1.7,2.9-3.7,4.7-5.2
		c1.2-1,2.9-1.7,4.5-2.1c4.2-0.9,7.3,2.3,6.2,6.4c-0.8,3.3-2.1,6.4-3.2,9.7c-0.3,1-0.8,2-0.9,3c-0.1,0.6,0.1,1.5,0.4,1.7
		c0.4,0.2,1.3,0,1.7-0.4c0.8-0.6,1.3-1.5,2-2.3c0.2-0.2,0.5-0.4,0.9-0.4c-1.4,2.9-3.5,5.1-6.8,5.7c-4.7,1-7.8-2.3-6.5-6.9
		c1.1-3.7,2.4-7.4,3.7-11c0.1-0.3,0.3-0.6,0.3-0.8c-0.1-0.6,0-1.5-0.4-1.9c-0.3-0.3-1.3-0.1-1.8,0.2c-3,2.1-5.1,4.9-6.3,8.3
		c-1.2,3.4-2.1,6.8-3,10.2c-0.3,1.1-0.7,1.6-2,1.5C89.7,404.4,87.1,404.4,84.5,404.4z"/>
	<path class="st0" d="M68.7,405.4c-6,0.1-10.4-3.1-11.3-8.2c-1.2-6.5,2.5-12.7,8.7-14.8c3-1,6.1-1.3,9.2-0.7
		c6.6,1.2,10,7.7,7.6,14.2C80.7,402,75.8,405.3,68.7,405.4z M64.9,401.5c0,2.1,1.1,3.2,2.8,3.2c1.5,0,2.5-0.9,3-2.1
		c0.7-1.8,1.4-3.7,1.9-5.6c1.1-3.8,2.1-7.6,3-11.5c0.4-1.7-0.3-3-1.5-3.4c-1.3-0.5-2.8,0-3.7,1.5c-0.7,1.2-1.3,2.4-1.7,3.8
		c-1.2,4-2.3,8.1-3.4,12.1C65.1,400.3,65,401.1,64.9,401.5z"/>
	<path class="st0" d="M46.9,383.1c-1.1,0-1.9,0-2.8,0c-0.1-0.1-0.1-0.3-0.2-0.4c0.3-0.1,0.6-0.4,0.9-0.4c1.3,0,2.5,0.1,3.8,0
		c2.6-0.2,5.2-0.5,7.9-0.7c-0.5,1.9-1.1,4.1-1.8,6.3c-1.1,4-2.3,8-3.4,12c-0.1,0.3-0.2,0.6-0.2,0.8c0,0.5,0,1.1,0.3,1.3
		c0.4,0.2,1.1,0.2,1.4-0.1c0.9-0.7,1.6-1.6,2.4-2.4c0.2-0.2,0.4-0.2,0.7-0.3c0,0.2,0.1,0.5-0.1,0.7c-2,3.1-4.6,5.2-8.5,5.1
		c-3.1-0.1-5.2-2.2-4.7-5.2c0.5-3.2,1.5-6.3,2.3-9.5C45.5,387.9,46.2,385.7,46.9,383.1z"/>
	<path class="st0" d="M53.9,370c2.4,0,4.5,2,4.5,4.4s-2.1,4.5-4.5,4.5c-2.3,0-4.4-2-4.4-4.4S51.5,370,53.9,370z"/>
</g>
<g>
	<path class="st0" d="M130.1,387.9c-0.5,0-0.8-0.4-1-0.8c-0.6-1-1.2-2.1-2-3c-0.5-0.7-1.2-1.2-1.9-1.7c-0.6-0.4-0.9-0.9-0.5-1.6
		c0.3-0.6,1-0.7,1.8-0.3c1.2,0.6,2.1,1.7,3,2.8c0.6,0.7,0.6,0.8,1.1-0.1c1.5-2.7,3.5-5.1,6-7c1.2-0.9,2.5-1.5,3.8-2.1
		c0.8-0.3,1.5-0.1,1.7,0.6c0.2,0.6-0.1,1.3-0.8,1.6c-4.9,2-7.8,5.7-9.6,10.4C131.2,387.3,131,387.9,130.1,387.9z"/>
	<path class="st0" d="M155.3,385.4c0.1,1.4-0.5,2.6-1.3,2.9c-0.7,0.3-1.7,0-2.2-0.6c-0.6-0.7-0.6-1.8,0.2-3.1
		C153,385.2,154.1,385.6,155.3,385.4z M153.4,387.4c0.1,0,0.3,0,0.5,0c0.4,0,0.7-0.2,0.7-0.6c0.1-0.5-0.3-0.4-0.6-0.5
		c-0.5-0.1-0.9-0.3-1.4-0.4c-0.2-0.1-0.5-0.1-0.6,0.2c-0.1,0.3,0,0.5,0.1,0.7C152.4,387.2,152.8,387.3,153.4,387.4z"/>
	<path class="st0" d="M113.7,371.5c0.5-1.7,2.1-0.7,3.1-1.3c-0.5-0.5-1-0.9-1.8-0.7c0.1-0.5,0.3-0.8,0.7-1.1
		c0.3,0.9,1.2,1.1,1.8,1.5c0.2,0.2,0.4,0.3,0.6,0.4s0.3,0.2,0.3,0.5c-0.1,0.3-0.3,0.3-0.5,0.3c-0.8,0.1-1.7,0.1-2.6,0.2
		c0.5,0.5,1,1,1.6,1c1.1,0,0.4,0.4,0.3,0.7c-0.1,0.1-0.2,0.3-0.3,0.3C116,372.3,115.1,371.7,113.7,371.5z"/>
	<path class="st0" d="M150.1,366.9c0.6,0.4,0.8,0.9,0.5,1.6c-0.2,0.5-0.3,1.1-0.6,1.8c0.8-0.3,1.3-0.6,1.5-1.4
		c0.4,0.2,0.6,0.6,0.8,1c-1.1-0.1-1.7,0.8-2.5,1.3c-0.3,0.1-0.5,0.6-0.9,0.3c-0.3-0.3-0.1-0.6,0-0.9c0.2-0.7,0.4-1.4,0.7-2.2
		c-1.1,0.5-1.4,0.8-1.7,1.6c-0.2,0-0.3-0.2-0.4-0.3c-0.3-0.3-0.5-0.5,0.2-0.7C148.7,368.5,149.6,367.9,150.1,366.9z"/>
	<path class="st0" d="M147.6,365.5c-0.2,1.2-1.2,2-2.2,1.8s-1.7-1.1-1.5-2c0.2-1.1,1.4-2,2.3-1.8
		C147.1,363.6,147.7,364.6,147.6,365.5z M146.9,365c0.1-0.3,0-0.6-0.2-0.8c-0.2-0.2-0.5-0.3-0.8-0.1c-0.6,0.4-1.1,0.9-1.2,1.6
		c-0.1,0.3,0,0.6,0.3,0.8c0.3,0.2,0.6,0.2,0.9-0.1C146.3,366.1,146.6,365.6,146.9,365z"/>
	<path class="st0" d="M134.3,363c-0.4,0.2-0.7,0.2-1,0.2c-0.4,0-0.7,0.1-0.4-0.5c0.1-0.2,0-0.5-0.2-0.6c-0.3-0.1-0.7-0.1-1,0.1
		c-0.2,0.1-0.2,0.4-0.1,0.6c0.1,0.2,0.3,0.3,0,0.5c-0.3,0.1-0.6,0.2-0.9,0c-0.3-0.2,0-0.4,0.1-0.5c0.3-0.9,0.5-1.7,0.8-2.5
		c0.1-0.3,0.2-0.7,0.6-0.7c0.4,0,0.5,0.3,0.7,0.6C133.3,361,133.6,362.1,134.3,363z"/>
	<path class="st0" d="M150.9,395.2c-0.2,0.6-0.6,1.2-1.2,1.5c-0.2,0.1-0.4,0.2-0.6,0c-0.1-0.1-0.1-0.3-0.1-0.4
		c0-0.3,0.3-0.3,0.5-0.3c0.4,0,0.7-0.2,0.8-0.6c0.1-0.6-0.3-1-0.7-1.3s-0.8-0.5-1.4-0.4c-0.2,0.1-0.4,0.2-0.4,0.4
		c0,0.3,0.2,0.4,0.4,0.5s0.6-0.1,0.5,0.3s-0.4,0.8-0.8,0.9c-0.3,0.1-0.2-0.3-0.4-0.4c-0.8-0.6-0.6-1.3,0-1.9
		c0.6-0.7,1.4-0.9,2.2-0.5C150.5,393.5,151,394.4,150.9,395.2z"/>
	<path class="st0" d="M138.4,400c-0.4,0.9-0.5,1.8-0.7,2.8c-0.1,0.3-0.1,0.6-0.5,0.7s-0.5-0.2-0.7-0.5c-0.5-0.8-0.9-1.8-1.6-2.5
		c-0.2-0.2-0.1-0.3,0.1-0.4c0.3-0.1,0.6-0.1,0.9-0.2c0.2,0,0.5,0,0.3,0.4c-0.2,0.3,0,0.6,0.3,0.7s0.6,0,0.8-0.1
		c0.3-0.2,0.3-0.5,0.1-0.7c-0.1-0.1-0.2-0.3,0-0.4c0.3-0.1,0.6-0.2,0.9-0.1C138.6,399.6,138.4,399.8,138.4,400z"/>
	<path class="st0" d="M126,400.6c0.2-0.2,0.4-0.1,0.5,0c0.3,0.1,0.6,0.3,0.7-0.2c0.1-0.3,0.4-0.6,0.1-0.9c-0.2-0.3-0.5-0.4-0.9-0.2
		c-0.2,0.1-0.3,0.4-0.6,0.1c-0.1-0.2,0-0.3,0.1-0.5c0.1-0.3,0.3-0.3,0.6-0.2c0.6,0.2,1.3,0.4,1.9,0.7c0.3,0.1,0.5,0.2,0.1,0.6
		c-0.6,0.8-0.9,1.7-0.9,2.7c0,0.4-0.1,0.4-0.4,0.3c-0.6-0.2-1.2-0.4-1.7-0.6c-0.1,0-0.3-0.1-0.3-0.2c-0.2-0.3-0.1-0.6,0.1-0.7
		c0.3-0.2,0.3,0.1,0.4,0.3c0.1,0.3,0.3,0.5,0.6,0.4c0.3,0,0.4-0.3,0.4-0.6c0.1-0.3-0.1-0.4-0.4-0.6
		C126.3,400.9,126.1,400.9,126,400.6z"/>
	<path class="st0" d="M152.8,374.8c-0.3,0-0.3-0.2-0.4-0.4c-0.1-0.3-0.3-0.5-0.6-0.4s-0.7,0.1-0.7,0.5c0,0.3,0.1,0.6,0.4,0.8
		c0.2,0.1,0.5,0,0.5,0.4c0,0.2-0.2,0.2-0.4,0.3c-0.3,0.1-0.5,0-0.6-0.3c-0.3-0.8-0.6-1.5-0.9-2.3c1.3,0.1,2.2-0.4,3.1-1
		c0.4-0.3,0.4-0.2,0.6,0.1c0.2,0.6,0.5,1.1,0.7,1.7c0.2,0.4-0.1,0.6-0.4,0.7c-0.3,0.1-0.5,0-0.3-0.3c0.2-0.4,0.2-0.7-0.1-1
		c-0.2-0.2-0.5,0-0.7,0.1c-0.4,0.2-0.2,0.6-0.1,0.9C152.9,374.6,152.9,374.7,152.8,374.8z"/>
	<path class="st0" d="M123.1,396.9c0.5,0.2,1.1,0.4,1.3,1.1c0.1,0.3,0,0.6-0.3,0.7c-0.4,0.1-0.4-0.2-0.4-0.5s-0.1-0.6-0.5-0.7
		c-0.2,0-0.3,0-0.4,0.1c-0.2,0.3,0,0.6,0.1,0.9c0.1,0.1,0.1,0.2,0.2,0.3c0.4,0.7,0.3,1.4-0.3,1.7c-0.5,0.3-1.5,0-1.8-0.6
		c-0.1-0.2-0.2-0.4,0-0.6c0.1-0.1,0.2-0.2,0.4-0.2c0.3,0,0.3,0.2,0.3,0.5s0.1,0.6,0.5,0.4c0.3-0.1,0.3-0.4,0.2-0.7
		c-0.2-0.3-0.4-0.6-0.5-1C121.5,397.5,122.2,396.8,123.1,396.9z"/>
	<path class="st0" d="M151.7,378.1c0-0.3,0.2-0.5,0.4-0.7c0.2-0.1,0.4-0.1,0.5,0.1s0.1,0.3-0.1,0.4c-0.1,0.1-0.2,0.2-0.3,0.3
		c-0.2,0.3-0.2,0.6,0.1,0.8c0.3,0.2,0.6,0,0.7-0.4c0.2-0.4,0.3-0.7,0.5-1.1s0.6-0.6,1.1-0.5s0.7,0.5,0.9,0.9
		c0.1,0.4,0.1,0.8-0.2,1.2c-0.1,0.2-0.3,0.2-0.5,0.1s-0.3-0.3-0.1-0.6c0.2-0.2,0.6-0.6,0.1-0.8c-0.5-0.2-0.6,0.3-0.7,0.6
		c0,0,0,0.1-0.1,0.2c-0.3,1-0.8,1.3-1.4,1.1C152,379.8,151.5,378.9,151.7,378.1z"/>
	<path class="st0" d="M128.4,360.7c-0.1,0.4-0.3,0.3-0.5,0.1c-0.2-0.1-0.3-0.2-0.5-0.1c-0.2,0.2-0.1,0.4,0,0.5
		c0.3,0.7,0.2,1.7,1,2.2c0.2,0.1,0.1,0.3-0.1,0.4c-0.2,0.1-0.5,0.2-0.7,0.3c-0.4,0.2-0.6,0.2-0.6-0.4c0.1-0.8-0.3-1.6-0.6-2.3
		c-0.2-0.4-0.5-0.2-0.6,0.1c-0.1,0.2,0,0.4-0.3,0.4c-0.1,0-0.2-0.2-0.2-0.3c-0.1-0.2-0.2-0.5,0.1-0.6c0.9-0.4,1.8-0.7,2.7-0.9
		C128.3,360.1,128.4,360.5,128.4,360.7z"/>
	<path class="st0" d="M141.9,398.1c-0.1,1.2,0.5,2,1,2.8c0.2,0.3,0.4,0,0.5-0.2s0-0.4,0.2-0.5c0.2,0,0.3,0.2,0.4,0.4
		c0.1,0.2,0.1,0.5-0.2,0.6c-0.8,0.4-1.6,0.7-2.4,1.1c-0.3,0.1-0.4-0.1-0.5-0.3c-0.1-0.2-0.2-0.3-0.1-0.5c0.2-0.2,0.3,0,0.5,0.1
		s0.3,0.1,0.5,0c0.1-0.1,0.1-0.3,0-0.5c-0.4-0.7-0.5-1.6-1.2-2.2c-0.3-0.2-0.1-0.3,0.1-0.4C141.1,398.4,141.4,398.1,141.9,398.1z"/>
	<path class="st0" d="M120.1,366.8c-0.4-0.6-0.2-1.6-1.2-1.7c-0.1,0-0.1-0.2,0-0.3c0.2-0.2,0.4-0.4,0.6-0.5s0.2,0.1,0.2,0.2
		c0.1,0.9,0.7,1.7,1,2.6c0.1,0.3,0.4,0.6,0.1,0.9c-0.4,0.3-0.7,0-1-0.2c-0.8-0.4-1.6-1-2.5-1.2c-0.3-0.1-0.3-0.2-0.1-0.4
		c0.2-0.2,0.5-0.5,0.7-0.7c0.1-0.1,0.3-0.2,0.4,0.1C118.7,366.5,119.5,366.5,120.1,366.8z"/>
	<path class="st0" d="M133,403.8c-0.4,0-0.6,0.1-0.9,0c-0.3,0-0.9,0.1-0.4-0.7c0.3-0.6,0.2-1.5,0.3-2.3c0-0.2-0.1-0.4-0.4-0.5
		c-0.3-0.1-0.5-0.1-0.8,0.2c-0.1,0.2-0.1,0.5-0.4,0.4c-0.2-0.1-0.1-0.3-0.1-0.4c0-0.3,0.1-0.6,0.4-0.6c0.7,0,1.5,0.1,2.2,0.2
		c0.4,0.1,0.2,0.3,0.1,0.5C132.7,401.4,132.7,403,133,403.8z"/>
	<path class="st0" d="M136.1,361.4c0.3-1.4,1.6-2.1,2.8-1.3c0.2,0.1,0.4,0.3,0.4,0.6c0,0.2-0.2,0.3-0.3,0.3
		c-0.3,0.1-0.4-0.2-0.5-0.4c-0.3-0.5-0.7-0.5-1-0.1c-0.4,0.6-0.6,1.2-0.4,1.9c0.1,0.5,0.6,0.6,1,0.6c0.2,0,0.5-0.3,0.6,0.1
		c0,0.3-0.3,0.3-0.6,0.4C136.8,363.9,135.9,362.8,136.1,361.4z"/>
	<path class="st0" d="M147.5,398.8c-0.5,0.5-0.9,0.8-1.4,1c-0.3-1.3-1-2.2-2.1-2.9c0.1-0.3,0.4-0.4,0.6-0.6c0.3-0.3,0.6-0.7,0.9,0.2
		C145.7,397.5,146.3,398.4,147.5,398.8z"/>
	<path class="st0" d="M150.3,389.4c0.9,1,1.9,1.5,3.2,1.7c0.1,0.3-0.2,0.6-0.3,0.8c-0.2,0.3-0.2,0.8-0.8,0.1
		c-0.5-0.7-1.4-1.1-2.3-1.1c-0.7,0-0.5-0.2-0.3-0.6C149.9,390,150,389.6,150.3,389.4z"/>
	<path class="st0" d="M143.2,361.7c-0.9,0.8-1.3,1.8-1.5,2.9c-0.1,0.5-0.1,0.5-0.5,0.3c-0.2-0.1-0.4-0.2-0.6-0.3
		c-0.3-0.2-0.4-0.2-0.1-0.6c0.7-0.8,1.2-1.8,1.1-3C142.2,361.1,142.7,361.4,143.2,361.7z"/>
	<path class="st0" d="M121.5,363c0.5-0.4,0.9-0.7,1.4-0.8c0.3,1.3,0.8,2.3,1.9,3.1c-0.4,0.5-0.9,0.6-1.5,1
		C123.5,365.1,122.5,363.4,121.5,363z"/>
	<path class="st0" d="M115.7,376.4c-0.8-0.8-1.8-1.1-2.7-1.2c-0.9-0.1-0.7-0.4-0.5-0.8c0.1-0.2,0.2-0.4,0.3-0.7
		c0.8,0.8,1.9,1.1,2.9,1.2c0.6,0,0.6,0.2,0.4,0.5C116,375.8,116,376.2,115.7,376.4z"/>
</g>
</svg>
