<?xml version="1.0" encoding="utf-8"?>
<!-- Generator: Adobe Illustrator 16.0.0, SVG Export Plug-In . SVG Version: 6.00 Build 0)  -->
<!DOCTYPE svg PUBLIC "-//W3C//DTD SVG 1.1//EN" "http://www.w3.org/Graphics/SVG/1.1/DTD/svg11.dtd">
<svg version="1.1" id="Capa_1" xmlns="http://www.w3.org/2000/svg" xmlns:xlink="http://www.w3.org/1999/xlink" x="0px" y="0px"
	 width="264.768px" height="161px" viewBox="0 0 264.768 161" enable-background="new 0 0 264.768 161" xml:space="preserve">
<g>
	<g>
		<path fill="#FFFFFF" d="M84.792,33.967c0.611,0.374,1.221,0.56,1.832,0.56c1.016,0,1.813-0.343,2.396-1.031
			c0.58-0.688,0.872-1.601,0.872-2.738c0-1.137-0.329-2.049-0.98-2.736c-0.655-0.688-1.548-1.033-2.68-1.033
			c-1.684,0-3.05,0.763-4.097,2.287c-1.046,1.527-1.729,3.727-2.048,6.598c-1.539-2.453-3.449-4.255-5.727-5.407
			c-2.283-1.152-5.076-1.73-8.388-1.73c-5.023,0-9.252,1.362-12.678,4.086c-3.428,2.721-5.141,6.042-5.141,9.962
			c0,1.197,0.19,2.258,0.566,3.185c0.379,0.929,0.989,1.856,1.831,2.782c-2.253,1.375-3.955,2.709-5.155,4.007l-0.713-0.327
			c-1.396,3.23-2.752,5.675-4.074,7.336c-1.321,1.661-2.549,2.493-3.68,2.493c-0.379,0-0.668-0.142-0.871-0.427
			c-0.206-0.286-0.307-0.727-0.307-1.325c0-0.331,0.03-0.703,0.088-1.123c0.06-0.419,0.145-0.766,0.262-1.245l6.971-28.216H33.18
			l-1.61,5.958c-0.349-2.243-1.314-4.029-2.898-5.255c-1.583-1.229-3.624-1.865-6.122-1.865c-5.024,0-9.687,2.448-13.983,7.37
			c-4.299,4.921-6.449,10.321-6.449,16.216c0,4.248,1.162,7.731,3.485,10.454c2.325,2.722,5.272,4.081,8.845,4.081
			c2.584,0,4.893-0.788,6.926-2.356c2.033-1.571,3.847-3.973,5.448-7.202c0,0.149-0.018,0.367-0.046,0.65
			c-0.027,0.288-0.042,0.487-0.042,0.604c0,2.484,0.589,4.406,1.765,5.769c1.176,1.36,2.825,2.041,4.948,2.041
			c2.612,0,5.043-1.123,7.294-3.365c0.743-0.742,1.448-1.599,2.123-2.56c0.136,1.165,0.489,2.219,1.065,3.165
			c0.755,1.241,1.96,2.384,3.615,3.434c-2.818,0.897-4.924,2.061-6.319,3.499c-1.395,1.436-2.09,3.141-2.09,5.116
			c0,3.02,1.433,5.415,4.293,7.181c2.859,1.764,6.758,2.647,11.696,2.647c7.086,0,12.933-1.767,17.535-5.296
			c4.605-3.531,6.907-7.794,6.907-12.791c0-3.168-0.843-5.45-2.526-6.842c-1.687-1.393-4.632-2.147-8.844-2.266L57.52,57.952
			c-3.078-0.088-5.324-0.388-6.732-0.898c-1.41-0.506-2.112-1.285-2.112-2.334c0-0.774,0.31-1.525,0.938-2.243
			c0.625-0.716,1.531-1.406,2.721-2.064c1.685,1.077,3.42,1.872,5.208,2.379c1.785,0.509,3.709,0.762,5.773,0.762
			c5.055,0,9.148-1.197,12.285-3.59c3.138-2.394,5.053-5.804,5.75-10.233c0.058-0.447,0.16-1.119,0.305-2.016
			c0.408-2.873,1.018-4.31,1.833-4.31C83.747,33.406,84.184,33.594,84.792,33.967z M28.671,46.752
			c-0.741,3.035-1.736,5.948-2.985,8.74c-1.22,2.706-2.628,4.822-4.225,6.355c-1.598,1.533-3.197,2.298-4.794,2.298
			c-1.073,0-1.925-0.362-2.545-1.083c-0.627-0.719-0.939-1.712-0.939-2.975c0-1.41,0.383-3.926,1.155-7.547
			c0.77-3.617,1.778-7.443,3.027-11.468c1.135-3.542,2.244-6.03,3.331-7.456c1.091-1.428,2.362-2.142,3.815-2.142
			c1.742,0,3.056,0.633,3.94,1.893c0.885,1.264,1.331,3.124,1.331,5.588C29.783,41.119,29.411,43.718,28.671,46.752z M50.46,67.682
			c1.6,0.418,3.807,0.486,6.622,0.486h0.088l7.496,0.546c0.522,0,1.247,0.199,2.176,0.226c5.025,0.094,7.539,1.424,7.539,3.819
			c0,2.572-1.816,4.959-5.448,7.067c-3.627,2.11-7.886,3.187-12.764,3.187c-3.225,0-5.766-0.689-7.625-2.099
			c-1.859-1.402-2.789-3.297-2.789-5.692c0-1.557,0.415-3.149,1.244-4.423C47.827,69.528,48.983,68.369,50.46,67.682z
			 M69.654,40.697c-0.597,2.888-1.257,5.213-1.983,6.978c-0.495,1.319-1.075,2.221-1.744,2.715
			c-0.667,0.495-1.627,0.741-2.875,0.741c-1.335,0-2.352-0.261-3.049-0.782c-0.697-0.526-1.045-1.296-1.045-2.313
			c0-1.406,0.348-3.724,1.045-6.956c0.697-3.231,1.407-5.669,2.135-7.314c0.521-1.019,1.125-1.728,1.807-2.131
			c0.683-0.403,1.635-0.607,2.855-0.607c1.161,0,2.076,0.306,2.745,0.921c0.667,0.613,1,1.473,1,2.58
			C70.545,35.755,70.249,37.812,69.654,40.697z"/>
		<path fill="#FFFFFF" d="M109.501,61.453c-3.093,1.825-6.193,2.736-9.301,2.736c-1.742,0-3.015-0.357-3.812-1.077
			c-0.8-0.717-1.199-1.855-1.199-3.411c0-0.867,0.151-2.19,0.458-3.972c0.306-1.778,0.72-3.76,1.243-5.947
			c0.375,0.034,0.898,0.079,1.567,0.136c1.859,0.211,3.208,0.314,4.05,0.314c5.607,0,10.006-1.045,13.204-3.141
			c3.193-2.094,4.791-4.966,4.791-8.615c0-2.872-1.146-5.213-3.441-7.022c-2.298-1.812-5.332-2.718-9.105-2.718
			c-3.224,0-6.397,0.69-9.519,2.065c-3.126,1.379-5.935,3.322-8.432,5.835c-2.236,2.273-3.971,4.781-5.208,7.517
			c-1.234,2.736-1.851,5.467-1.851,8.189c0,4.276,1.53,7.771,4.598,10.477c3.064,2.708,7.092,4.063,12.088,4.063
			c3.69,0,7.163-0.98,10.412-2.941c3.252-1.958,6.42-4.973,9.5-9.042l-1.525-1.258C115.434,57.025,112.594,59.629,109.501,61.453z
			 M101.748,34.055c1.231-2.078,2.794-3.118,4.684-3.118c1.624,0,2.837,0.405,3.635,1.212c0.799,0.809,1.199,2.051,1.199,3.725
			c0,3.888-0.909,6.858-2.722,8.907c-1.816,2.049-4.452,3.078-7.909,3.078c-0.436,0-1.04-0.048-1.809-0.134
			c-0.771-0.093-1.27-0.137-1.502-0.137C99.038,40.645,100.512,36.136,101.748,34.055z"/>
		<path fill="#FFFFFF" d="M245.975,15.177c1.076-0.597,1.879-1.379,2.417-2.126c0.539-0.747,0.807-1.61,0.807-2.478
			c0-1.136-0.398-2.163-1.199-3.032c-0.798-0.867-1.707-1.315-2.723-1.315c-0.869,0-1.697,0.21-2.483,0.644
			c-0.784,0.434-1.712,1.402-2.79,2.478L225.629,24.19h4.835L245.975,15.177z"/>
		<path fill="#FFFFFF" d="M250.093,52.871h-0.199c-1.394,0.956-2.751,5.457-4.072,7.119c-1.325,1.66-2.551,2.38-3.683,2.38
			c-0.378,0-0.667-0.2-0.87-0.483c-0.206-0.285-0.307-0.753-0.307-1.351c0-0.331,0.03-0.713,0.088-1.134
			c0.06-0.419,0.147-0.774,0.263-1.252l6.968-28.224h-9.889l-1.61,5.958c-0.349-2.243-1.316-4.029-2.899-5.255
			c-1.583-1.229-3.624-1.865-6.123-1.865c-5.022,0-9.686,2.448-13.983,7.37c-4.298,4.921-6.448,10.321-6.448,16.216
			c0,0.838,0.058,1.641,0.147,2.419c-1.015,2.299-2.123,4.231-3.335,5.743c-1.438,1.796-2.695,2.69-3.767,2.69
			c-0.499,0-0.858-0.147-1.09-0.448c-0.233-0.295-0.348-0.76-0.348-1.389c0.028-0.448,0.093-0.98,0.196-1.595
			c0.102-0.61,0.284-1.472,0.544-2.581l11.938-52.458c-2.645,0.298-5.382,0.23-8.212,0.396c-2.832,0.163-5.776-0.057-8.823-0.057
			h-2.088v2.868h6.837l-6.1,27.072c-0.436-2.035-1.38-3.524-2.832-4.616c-1.452-1.092-3.298-1.601-5.534-1.601
			c-2.613,0-5.257,0.734-7.929,2.169c-2.673,1.437-5.053,3.451-7.146,6.025c-1.887,2.302-3.368,4.853-4.442,7.634
			c-1.074,2.781-1.61,5.416-1.61,7.899c0,0.583,0.026,1.15,0.07,1.706c-0.954,2.263-2.042,4.181-3.28,5.723
			c-1.48,1.839-2.73,2.76-3.746,2.76c-0.523,0-0.893-0.119-1.113-0.357c-0.214-0.241-0.325-0.687-0.325-1.35
			c0-0.328,0.006-0.573,0.02-0.737c0.016-0.165,0.037-0.292,0.067-0.382l5.097-21.27c0.115-0.451,0.205-0.907,0.263-1.37
			c0.056-0.465,0.085-0.98,0.085-1.547c0-2.155-0.75-3.855-2.246-5.096c-1.492-1.239-3.55-1.863-6.164-1.863
			c-2.759,0-5.385,0.893-7.884,2.67c-2.498,1.782-5.069,4.601-7.71,8.458l2.655-11.129c-3.281,0.391-6.454,0.69-9.52,0.899
			c-3.064,0.209-6.032-0.485-8.909-0.455l-0.044,1.702h6.101l-7.318,33.461h11.76l4.096-17.916c0.757-3.231,2.548-6.152,5.38-9.43
			c2.834-3.275,5.118-4.748,6.863-4.748c0.581,0,1.023,0.228,1.329,0.508c0.303,0.288,0.458,0.772,0.458,1.367
			c0,0.331-0.046,0.809-0.13,1.393c-0.087,0.581-0.22,1.288-0.392,2.095l-4.228,17.462c-0.231,0.986-0.421,1.969-0.566,2.94
			c-0.146,0.975-0.217,1.775-0.217,2.404c0,1.792,0.645,3.226,1.938,4.286c1.291,1.063,3.057,1.594,5.292,1.594
			c3.485,0,6.456-1.049,8.911-3.142c1.583-1.35,2.962-3.155,4.139-5.404c0.579,1.919,1.495,3.619,2.772,5.088
			c2.335,2.693,5.351,4.041,9.04,4.041c2.555,0,4.895-0.75,7.015-2.244c2.12-1.496,4.067-3.754,5.838-6.774
			c0,0.178-0.012,0.418-0.044,0.715c-0.029,0.301-0.044,0.525-0.044,0.674c0,2.544,0.589,4.45,1.766,5.722
			c1.176,1.27,2.94,1.908,5.295,1.908c3.048,0,5.756-1.086,8.123-3.254c1.542-1.413,2.868-3.234,3.984-5.455
			c0.578,1.731,1.449,3.271,2.602,4.625c2.321,2.721,5.272,4.083,8.845,4.083c2.583,0,4.895-0.788,6.926-2.358
			c2.032-1.57,3.849-3.972,5.449-7.202c0,0.15-0.018,0.367-0.047,0.651c-0.027,0.286-0.043,0.487-0.043,0.604
			c0,2.484,0.588,4.406,1.766,5.769c1.174,1.36,2.823,2.041,4.944,2.041c2.614,0,4.728-1.123,6.979-3.365
			c1.467-1.464,5.418-8.283,5.975-9.739l0.029,0.274L250.093,52.871z M187.609,56.718c-2.934,5.043-6.055,7.562-9.366,7.562
			c-1.075,0-1.889-0.27-2.442-0.808c-0.548-0.54-0.827-1.333-0.827-2.378c0-1.408,0.372-4.04,1.112-7.899
			c0.741-3.859,1.708-7.732,2.896-11.622c1.25-4.19,2.385-6.993,3.401-8.414c1.015-1.421,2.265-2.133,3.745-2.133
			c1.859,0,3.305,0.786,4.335,2.357c1.031,1.572,1.549,3.79,1.549,6.664C192.01,46.122,190.542,51.676,187.609,56.718z
			 M233.884,46.752c-0.74,3.035-1.736,5.948-2.986,8.74c-1.218,2.706-2.627,4.822-4.227,6.355c-1.593,1.533-3.192,2.298-4.79,2.298
			c-1.074,0-1.922-0.362-2.549-1.083c-0.625-0.719-0.936-1.712-0.936-2.975c0-1.41,0.385-3.926,1.155-7.547
			c0.771-3.617,1.78-7.443,3.029-11.468c1.13-3.542,2.241-6.03,3.333-7.456c1.088-1.428,2.358-2.142,3.809-2.142
			c1.744,0,3.06,0.633,3.943,1.893c0.885,1.264,1.332,3.124,1.332,5.588C234.997,41.119,234.624,43.718,233.884,46.752z"/>
	</g>
	<path fill="#FFFFFF" d="M51.225,118.314c-0.973,1.224-1.876,1.835-2.711,1.835c-0.28,0-0.493-0.104-0.641-0.313
		c-0.15-0.211-0.225-0.537-0.225-0.977c0-0.245,0.02-0.516,0.065-0.825c0.041-0.31,0.104-0.785,0.19-1.137l5.135-21.005h-7.284
		l-1.188,4.607c-0.257-1.653-0.97-2.857-2.135-3.761c-1.167-0.904-2.67-1.319-4.508-1.319c-3.702,0-7.136,1.831-10.304,5.455
		c-3.165,3.625-4.749,7.616-4.749,11.96c0,0.89,0.076,1.734,0.215,2.535c-0.576,1.146-1.173,2.125-1.791,2.895
		c-1.02,1.253-1.984,1.883-2.905,1.883c-0.322,0-0.59-0.122-0.802-0.363c-0.217-0.242-0.322-0.574-0.322-0.993
		c0-0.24,0.018-0.517,0.063-0.825c0.042-0.308,0.118-0.694,0.223-1.156l8.795-39.041c-2.31,0.243-4.45,0.53-6.416,0.639
		c-1.97,0.112-3.841,0.274-5.617,0.274h-1.557v0.956h4.381l-7.672,34.536c-0.127,0.595-0.229,1.321-0.304,1.828
		c-0.076,0.506-0.113,1.037-0.113,1.412c0,1.74,0.534,3.158,1.606,4.158c1.069,1.006,2.512,1.528,4.332,1.528
		c2.332,0,4.373-0.77,6.128-2.334c0.934-0.833,1.79-1.897,2.576-3.193c0.421,1.093,0.997,2.09,1.746,2.968
		c1.713,2.007,3.883,3.009,6.517,3.009c1.903,0,3.605-0.579,5.102-1.737c1.497-1.155,2.835-2.923,4.013-5.305
		c0,0.114-0.01,0.273-0.032,0.48c-0.02,0.213-0.034,0.36-0.034,0.447c0,1.829,0.434,3.245,1.3,4.25
		c0.868,1.002,2.08,1.503,3.643,1.503c1.927,0,3.716-0.827,5.376-2.481c1.658-1.65,3.084-4.041,4.283-7.172l-1.379-0.629
		C53.199,115.29,52.199,117.09,51.225,118.314z M42.432,108.725c-0.547,2.236-1.28,4.383-2.199,6.439
		c-0.899,1.994-1.937,3.553-3.115,4.682c-1.173,1.128-2.351,1.692-3.527,1.692c-0.792,0-1.419-0.265-1.879-0.798
		c-0.459-0.529-0.689-1.26-0.689-2.189c0-1.041,0.283-2.895,0.85-5.561c0.565-2.665,1.311-5.482,2.231-8.447
		c0.833-2.609,1.651-4.442,2.452-5.493c0.804-1.049,1.74-1.576,2.812-1.576c1.282,0,2.252,0.465,2.904,1.393
		c0.651,0.931,0.98,2.304,0.98,4.116C43.251,104.577,42.975,106.49,42.432,108.725z"/>
	<path fill="#FFFFFF" d="M98.8,101.629H90.77c1.509-10.516,2.967-15.521,4.376-18.587c1.409-3.068,3.247-4.751,5.512-4.751
		c0.756,0,1.271,0.043,1.548,0.282c0.275,0.242,0.412,0.606,0.412,1.175c0,0.241-0.26,0.848-0.781,1.866
		c-0.523,1.017-0.789,2.008-0.789,2.998c0,1.406,0.474,2.529,1.418,3.384c0.942,0.851,2.214,1.277,3.812,1.277
		c1.481,0,2.673-0.504,3.573-1.504c0.9-1.002,1.352-2.315,1.352-3.932c0-2.272-0.864-4.186-2.595-5.742
		c-1.727-1.557-3.927-2.334-6.599-2.334c-4.968,0-9.409,2.488-13.332,6.854c-3.921,4.367-7.001,8.499-9.237,19.014h-7.888
		l-0.106-0.037c-0.118,0.011-0.225,0.037-0.341,0.037c0,0,4.18,0-0.756,0c-4.937,0-12.709,2.329-15.883,8.979
		c-0.508,1.003-0.687,2.024-0.687,3.23c0,0.045,0.063,0.839,0.063,0.886c-0.015,0.285,0.041,1.245,0.041,1.245h0.058
		c0.135,0.957,0.796,2.49,2.056,3.745c1.409,1.408,3.086,1.717,5.031,1.717c1.977,0,3.645-0.908,5.011-2.328
		c1.365-1.419,2.05-3.23,2.05-5.235c0-2.005-0.701-3.781-2.091-5.232c-1.352-1.406-2.954-2.183-4.793-2.228
		c2.25-1.337,5.42-2.866,9.902-2.866h7.636c-1.569,6.692-3.326,15.285-5.271,25.665c-3.109,16.545-6.535,24.841-10.283,24.841
		c-0.726,0-1.233-0.101-1.527-0.329c-0.29-0.224-0.434-0.627-0.434-1.227c0-0.24,0.269-0.868,0.807-1.882
		c0.536-1.018,0.806-2.004,0.806-2.96c0-1.438-0.484-2.581-1.461-3.434c-0.972-0.854-2.271-1.279-3.896-1.279
		c-1.455,0-2.622,0.502-3.508,1.505c-0.887,1-1.33,2.312-1.33,3.927c0,2.362,0.887,4.299,2.659,5.811
		c1.771,1.511,4.108,2.265,7.014,2.265c3.979,0,7.783-1.75,11.416-5.25c3.63-3.499,6.606-8.331,8.931-14.494
		c1.393-3.709,3.659-13.354,6.797-28.854l0.871-4.306H98.8V101.629z"/>
	<path fill="#FFFFFF" d="M107.657,120.813c0.378,0.032,0.898,0.077,1.567,0.137c1.857,0.211,3.209,0.313,4.052,0.313
		c5.607,0,10.006-1.044,13.202-3.139c3.197-2.096,4.793-4.968,4.793-8.617c0-2.871-1.148-5.212-3.442-7.023
		c-2.294-1.809-5.331-2.715-9.105-2.715c-3.224,0-6.399,0.689-9.522,2.064c-3.121,1.379-5.931,3.323-8.43,5.833
		c-2.237,2.275-3.974,4.782-5.208,7.518c-1.232,2.737-1.851,5.468-1.851,8.188c0,4.278,1.533,7.772,4.597,10.478
		c3.065,2.709,7.094,4.064,12.092,4.064c3.687,0,7.158-0.98,10.411-2.94c3.253-1.959,6.419-4.976,9.499-9.042l-1.525-1.257
		c-2.583,3.381-5.425,5.987-8.517,7.809c-3.096,1.824-6.196,2.736-9.304,2.736c-1.742,0-3.013-0.357-3.812-1.075
		c-0.799-0.718-1.198-1.856-1.198-3.409c0-0.87,0.152-2.192,0.457-3.974C106.719,124.983,107.134,122.999,107.657,120.813z
		 M112.514,105.087c1.234-2.082,2.796-3.12,4.683-3.12c1.628,0,2.838,0.403,3.639,1.212c0.798,0.807,1.197,2.051,1.197,3.724
		c0,3.891-0.908,6.858-2.723,8.908c-1.816,2.047-4.45,3.076-7.908,3.076c-0.437,0-1.037-0.046-1.809-0.133
		c-0.771-0.095-1.272-0.138-1.502-0.138C109.806,111.675,111.277,107.164,112.514,105.087z"/>
	<path fill="#FFFFFF" d="M165.129,102.168c-2.079-1.541-4.756-2.31-8.039-2.31c-6.476,0-12.244,2.37-17.294,7.111
		c-5.055,4.743-7.584,10.121-7.584,16.133c0,4.459,1.432,8.041,4.294,10.746c2.86,2.709,6.686,4.064,11.479,4.064
		c3.806,0,7.193-0.893,10.173-2.672c2.976-1.78,5.656-4.478,8.036-8.099l-1.523-1.211c-2.031,3.022-4.385,5.339-7.057,6.955
		c-2.674,1.616-5.49,2.423-8.452,2.423c-1.54,0-2.744-0.381-3.617-1.145c-0.869-0.765-1.307-1.817-1.307-3.163
		c0-2.035,0.458-5.227,1.373-9.583c0.914-4.35,2.042-8.352,3.377-12.002c1.045-2.839,2.063-4.777,3.049-5.811
		c0.987-1.031,2.252-1.548,3.79-1.548c0.727,0,1.331,0.204,1.807,0.605c0.482,0.404,0.722,0.905,0.722,1.503
		c0,0.42-0.138,1.2-0.413,2.335c-0.279,1.137-0.417,2.107-0.417,2.915c0,1.319,0.472,2.424,1.415,3.321
		c0.945,0.899,2.146,1.347,3.595,1.347c1.774,0,3.168-0.546,4.185-1.637c1.014-1.093,1.523-2.566,1.523-4.422
		C168.244,105.663,167.206,103.709,165.129,102.168z"/>
	<path fill="#FFFFFF" d="M254.084,123.461c-1.395,3.232-2.752,5.676-4.073,7.336c-1.323,1.664-2.552,2.493-3.682,2.493
		c-0.378,0-0.668-0.141-0.872-0.426c-0.203-0.286-0.306-0.725-0.306-1.323c0-0.333,0.03-0.703,0.087-1.122
		c0.06-0.422,0.147-0.431,0.262-0.91l6.971-27.881h-9.89l-1.611,5.623c-0.349-2.243-1.314-4.199-2.898-5.424
		c-1.583-1.229-3.623-1.949-6.121-1.949c-5.025,0-9.686,2.405-13.985,7.327c-4.297,4.92-6.448,10.299-6.448,16.193
		c0,1.067,0.073,2.072,0.22,3.043c-0.825,1.776-1.739,3.307-2.756,4.566c-1.466,1.829-2.723,2.737-3.767,2.737
		c-0.523,0-0.894-0.116-1.113-0.338c-0.215-0.224-0.323-0.622-0.323-1.19c0-0.418,0.005-0.72,0.021-0.901
		c0.014-0.179,0.036-0.313,0.065-0.403l5.009-21.271c0.118-0.449,0.203-0.907,0.263-1.367c0.06-0.465,0.086-0.982,0.086-1.549
		c0-2.124-0.733-3.799-2.2-5.025c-1.466-1.227-3.506-1.84-6.122-1.84c-2.698,0-5.262,0.837-7.689,2.512
		c-2.426,1.677-4.915,4.354-7.472,8.033l7.842-34.643c-2.526,0.298-5.163,0.565-7.907,0.729c-2.744,0.165-5.569,0.283-8.473,0.283
		h-2.875v1.912h6.797l-12.854,57.362h11.765l4.095-18.162c0.696-3.17,2.489-6.262,5.38-9.595c2.891-3.337,5.179-4.926,6.86-4.926
		c0.525,0,0.952,0.223,1.286,0.582c0.336,0.36,0.503,0.873,0.503,1.502c0,0.33-0.066,0.901-0.196,1.693
		c-0.131,0.792-0.298,1.613-0.503,2.451l-4.051,16.56c-0.26,1.108-0.455,2.073-0.588,2.898c-0.13,0.822-0.194,1.502-0.194,2.04
		c0,1.945,0.646,3.486,1.938,4.624c1.29,1.136,3.059,1.705,5.292,1.705c3.456,0,6.403-1.054,8.845-3.164
		c1.427-1.235,2.688-2.85,3.785-4.827c0.581,1.638,1.413,3.109,2.517,4.401c2.323,2.723,5.271,4.084,8.844,4.084
		c2.583,0,4.894-0.787,6.926-2.357c2.035-1.572,3.85-3.972,5.448-7.203c0,0.152-0.017,0.367-0.043,0.651
		c-0.029,0.285-0.044,0.487-0.044,0.604c0,2.484,0.587,4.408,1.765,5.768c1.175,1.362,2.823,2.042,4.944,2.042
		c2.614,0,5.046-1.119,7.298-3.365c2.25-2.241,4.188-5.489,5.816-9.738L254.084,123.461z M238.073,117.781
		c-0.74,3.035-1.736,5.949-2.983,8.741c-1.222,2.705-2.63,4.82-4.227,6.355c-1.596,1.533-3.193,2.297-4.793,2.297
		c-1.072,0-1.923-0.36-2.547-1.081c-0.625-0.72-0.938-1.713-0.938-2.975c0-1.412,0.383-3.929,1.154-7.547
		c0.77-3.619,1.782-7.443,3.029-11.468c1.134-3.544,2.242-6.031,3.333-7.457c1.09-1.427,2.358-2.14,3.812-2.14
		c1.742,0,3.057,0.629,3.942,1.89c0.885,1.264,1.331,3.125,1.331,5.59C239.186,112.15,238.815,114.749,238.073,117.781z"/>
</g>
</svg>
