<?xml version="1.0" encoding="utf-8"?>
<!-- Generator: Adobe Illustrator 19.0.0, SVG Export Plug-In . SVG Version: 6.00 Build 0)  -->
<svg version="1.1" id="Capa_1" xmlns="http://www.w3.org/2000/svg" xmlns:xlink="http://www.w3.org/1999/xlink" x="0px" y="0px"
	 viewBox="-192 367.7 226 59.3" style="enable-background:new -192 367.7 226 59.3;" xml:space="preserve">
<g>
	<path d="M-84.3,407.7c0.3-0.2,0.5-0.6,0.8-0.6c2.1-0.1,4.3-0.1,6.5-0.2c-0.2,1-0.4,2.1-0.7,3.3c0.7-0.8,1.2-1.4,1.8-1.9
		c1.2-1.2,2.8-1.7,4.5-1.7c1.9,0.1,3,1.3,2.5,3.2c-0.6,3-1.2,6.1-1.9,9c0,0.1-0.1,0.3-0.1,0.4c0,0.3,0.1,0.6,0.1,0.8
		c0.3-0.1,0.6-0.1,0.8-0.3c0.3-0.2,0.6-0.6,0.8-0.9c0.5-0.8,1-1.5,1.4-2.4c0.2,0.1,0.5,0.2,0.8,0.3c-0.8,1.5-1.6,3-2.9,4.1
		c-0.8,0.6-1.7,0.9-2.6,0.8c-1.8-0.1-2.9-1.6-2.5-3.7c0.3-2.3,0.9-4.7,1.3-7c0.1-0.6,0.3-1.3,0.4-1.9c0.1-0.3,0-0.8-0.1-0.8
		c-0.2-0.1-0.7-0.1-1,0.1c-0.8,0.6-1.7,1.2-2.3,2.1c-1.7,1.9-2.2,4.3-2.7,6.8c-0.3,1.4-0.6,2.9-1,4.4c-1.4,0-2.9,0-4.4,0
		c1-4.4,1.9-8.9,2.8-13.4c-0.9,0-1.7,0-2.5,0C-84.2,407.9-84.2,407.8-84.3,407.7z"/>
	<path d="M-50.1,422c-3.7-0.1-6.1-2.1-6.3-5.2c-0.1-1.7,0.3-3.2,1.1-4.6c1.9-3.2,4.5-5.3,8.3-5.5c4.4-0.3,7.1,2.7,6.4,7
		C-41.3,418.2-45.7,422.1-50.1,422z M-52.2,419c0,0.8,0,1.4,0.8,1.9c1.4,0.7,3.2,0.1,3.9-1.2c0.4-0.8,0.7-1.7,0.9-2.5
		c0.6-2.5,1.2-5.1,1.8-7.6c0.1-0.6,0.1-1.1-0.5-1.5c-1.3-0.8-3.5-0.3-4.1,1.1C-50.8,412.2-51.7,415.6-52.2,419z"/>
	<path d="M-116.9,417.2c0.2,0.1,0.4,0.3,0.6,0.4c-2.1,3.7-6.1,5.2-10,3.9c-3-1-4.3-3.5-3.7-6.9c0.8-4,4.3-7.4,8.3-8.1
		c1.7-0.3,3.3,0,4.7,1.2c1.9,1.7,1.6,4.7-0.7,6.1c-1.4,0.8-2.9,1.1-4.5,1.2c-0.5,0.1-1,0.1-1.4,0.1c-1.3,0.1-1.3,0.1-1.6,1.3
		c-0.1,0.8-0.3,1.7-0.3,2.5c-0.1,1.3,0.5,1.9,1.9,2.1c2.1,0.1,3.9-0.8,5.4-2.3C-117.9,418.3-117.4,417.8-116.9,417.2z M-124.8,414.4
		c1.1-0.1,2-0.3,2.9-0.4c0.9-0.1,1.4-0.7,1.9-1.4c0.6-1.1,0.8-2.3,0.7-3.5c-0.1-0.9-0.6-1.4-1.5-1.4c-1.2,0-2.1,0.8-2.4,1.8
		C-123.8,411-124.3,412.6-124.8,414.4z"/>
	<path d="M-86.8,417.3c0.1,0.1,0.3,0.2,0.5,0.3c0,0.1,0,0.1,0,0.2c-2.1,3-4.8,4.7-8.7,4.1c-3.9-0.6-5.7-3.3-5-7.2
		c0.8-4,4.3-7.5,8.3-8.1c1.1-0.1,2.3,0.1,3.4,0.4c1.4,0.4,2.3,1.5,2.4,3c0.1,1.6-0.4,3-1.9,3.7c-1.4,0.6-2.9,0.8-4.3,1.2
		c-0.3,0.1-0.5,0-0.8,0.1c-2.2,0.1-2.2,0.1-2.5,2.2c-0.1,0.6-0.1,1.1-0.2,1.6c-0.1,1.2,0.6,1.9,1.8,2c1.8,0.1,3.3-0.4,4.7-1.6
		C-88.3,418.8-87.5,418.1-86.8,417.3z M-94.7,414.3c3.7,0.1,4.7-0.8,5.3-3.5c0.1-0.4,0.1-0.8,0.1-1.2c0-0.7,0-1.4-0.8-1.8
		c-0.8-0.3-1.6-0.3-2.1,0.3c-0.6,0.6-1.1,1.4-1.4,2.2C-94.1,411.5-94.3,412.8-94.7,414.3z"/>
	<path d="M-111.4,408.1c-2,0.5-2.5,2.1-3.4,3.6c-0.3-0.1-0.6-0.2-0.8-0.3c0.6-2.6,3.1-4.8,5.6-4.8c1.9,0,2.9,1,2.6,2.8
		c-0.3,2.5-1,5-1.4,7.5c-0.1,0.6-0.3,1.3-0.3,1.9c0,1,0.6,1.5,1.5,1.4c0.7-0.1,1.4-0.4,1.9-0.8c2.2-2,3.3-4.6,3.8-7.5
		c0.1-0.8-0.1-1.2-1-1.2c-0.3,0-0.6-0.1-1-0.1c-1.2-0.3-1.7-1.3-1.4-2.4c0.3-1,1.4-1.7,2.5-1.3c1.2,0.3,1.9,1.2,1.9,2.3
		c0.1,1,0.1,2.2-0.1,3.2c-0.7,3.1-1.9,6-4.5,8.1c-1.5,1.2-3.2,1.9-5.2,1.5c-2.1-0.5-3.2-2.3-2.8-4.7c0.6-2.7,1.2-5.4,1.7-8.1
		C-111.4,408.8-111.4,408.5-111.4,408.1z"/>
	<path d="M-63.3,408c-0.8,0-1.4,0-2.1,0c-0.1-0.1-0.1-0.1-0.1-0.2c0.2-0.2,0.3-0.5,0.6-0.6c2.4-1.4,4.5-3.3,6.3-5.5
		c0.2-0.3,0.7-0.4,1-0.6c0.1,0.1,0.1,0.1,0.2,0.2c-0.4,1.9-0.8,3.8-1.2,5.8c1,0,1.9,0,2.8,0c0.1,0.7-0.1,1-0.8,0.9
		c-0.8-0.1-1.4,0-2.3,0c-0.7,3.2-1.3,6.2-1.9,9.3c-0.1,0.8-0.3,1.5-0.4,2.3c-0.1,0.3,0.1,0.7,0.2,0.8c0.2,0.1,0.7,0.1,0.8-0.1
		c0.7-0.8,1.3-1.7,1.9-2.5c0.1-0.2,0.3-0.5,0.4-0.8c0.3,0.1,0.6,0.2,0.8,0.3c-0.9,2.1-2,4-4.4,4.6c-2.2,0.6-4.1-0.8-3.9-3
		c0.1-1.9,0.6-3.8,0.9-5.7C-64.1,411.5-63.6,409.8-63.3,408z"/>
	<path d="M-35.7,422.2c-1.1-0.3-2.3-0.5-3.2-1c-0.7-0.3-1.2-1.1-1.5-1.8c-0.4-1,0.1-2.1,1.1-2.3c1-0.2,2.1,0.5,2.3,1.6
		c0.1,0.3,0.1,0.8,0,1.1c-0.2,0.8,0.2,1.2,0.8,1.2c0.9,0,1.9-0.1,2.8-0.4c1.2-0.5,1.4-1.9,0.5-2.8c-0.3-0.3-0.8-0.7-1.2-1
		c-0.9-0.6-1.9-1.2-2.8-1.9c-1.4-1.1-2.1-2.5-1.7-4.4c0.4-1.9,1.7-3,3.5-3.6c1.8-0.6,3.4-0.3,4.9,1c0.3,0.3,0.6,0.8,0.8,1.2
		c0.3,0.7,0.1,1.3-0.4,1.8c-0.6,0.5-1.3,0.4-1.9,0.1c-0.7-0.3-0.7-1-0.6-1.7c0.3-1.3,0-1.7-1.4-1.7c-0.4,0-0.8,0.1-1.2,0.2
		c-1.2,0.4-1.4,1.4-0.4,2.3c1.2,1,2.5,1.9,3.7,2.8c1.4,1.1,2.3,2.4,2.1,4.3c-0.3,2.6-2.6,4.6-5.5,4.8c-0.1,0-0.3,0-0.5,0
		C-35.6,422.1-35.7,422.1-35.7,422.2z"/>
</g>
<g>
	<path d="M-117.4,385.2c-4-0.3-7,1-8.8,4.5c-0.1,0.2-0.3,0.3-0.5,0.4c-0.1-0.1-0.1-0.1-0.2-0.1c0.6-1.7,1.1-3.5,1.7-5.2
		c4.7,0,9.4,0,14.1,0c-4,5.6-7.9,11.2-11.8,16.9c3.9,0.4,7-0.8,9.2-3.8c0.2-0.3,0.3-0.5,0.6-0.8c0.1-0.1,0.3-0.2,0.5-0.3
		c0.1,0.1,0.1,0.1,0.1,0.1c-0.3,1-0.7,2.1-1,3.2c-0.2,0.7-0.3,1.6-0.8,1.9c-0.4,0.3-1.3,0.1-2,0.1c-4.1,0-8.1,0-12.1,0
		c-0.2,0-0.4,0-0.8,0C-125.3,396.4-121.4,390.9-117.4,385.2z"/>
	<path d="M-80.6,402.2c1.4-4.9,2.8-9.7,4.1-14.7c-0.8,0-1.3,0-1.9,0c0-0.1-0.1-0.2-0.1-0.3c0.2-0.1,0.5-0.2,0.7-0.3
		c1.7-0.1,3.4-0.1,5.2-0.2c0.8-0.1,1.7-0.3,2.7-0.6c-0.5,1.9-1,3.7-1.5,5.6l0.1,0.1c0.1-0.2,0.3-0.5,0.5-0.7c1-1.2,2-2.5,3.2-3.6
		c0.8-0.7,2-1.2,3.1-1.4c2.9-0.6,5,1.6,4.3,4.4c-0.6,2.3-1.4,4.4-2.2,6.7c-0.2,0.7-0.6,1.4-0.6,2.1c-0.1,0.4,0.1,1,0.3,1.2
		c0.3,0.1,0.9,0,1.2-0.3c0.6-0.4,0.9-1,1.4-1.6c0.1-0.1,0.3-0.3,0.6-0.3c-1,2-2.4,3.5-4.7,3.9c-3.2,0.7-5.4-1.6-4.5-4.8
		c0.8-2.5,1.7-5.1,2.5-7.6c0.1-0.2,0.2-0.4,0.2-0.6c-0.1-0.4,0-1-0.3-1.3c-0.2-0.2-0.9-0.1-1.2,0.1c-2.1,1.4-3.5,3.4-4.3,5.7
		c-0.8,2.3-1.4,4.7-2.1,7c-0.2,0.8-0.5,1.1-1.4,1C-77,402.2-78.8,402.2-80.6,402.2z"/>
	<path d="M-91.5,402.8c-4.1,0.1-7.2-2.1-7.8-5.6c-0.8-4.5,1.7-8.7,6-10.2c2.1-0.7,4.2-0.9,6.3-0.5c4.5,0.8,6.9,5.3,5.2,9.8
		C-83.2,400.5-86.6,402.8-91.5,402.8z M-94.1,400.2c0,1.4,0.8,2.2,1.9,2.2c1,0,1.7-0.6,2.1-1.4c0.5-1.2,1-2.5,1.3-3.9
		c0.8-2.6,1.4-5.2,2.1-7.9c0.3-1.2-0.2-2.1-1-2.3c-0.9-0.3-1.9,0-2.5,1c-0.5,0.8-0.9,1.7-1.2,2.6c-0.8,2.8-1.6,5.6-2.3,8.3
		C-94,399.3-94,399.9-94.1,400.2z"/>
	<path d="M-106.5,387.5c-0.8,0-1.3,0-1.9,0c-0.1-0.1-0.1-0.2-0.1-0.3c0.2-0.1,0.4-0.3,0.6-0.3c0.9,0,1.7,0.1,2.6,0
		c1.8-0.1,3.6-0.3,5.4-0.5c-0.3,1.3-0.8,2.8-1.2,4.3c-0.8,2.8-1.6,5.5-2.3,8.3c-0.1,0.2-0.1,0.4-0.1,0.6c0,0.3,0,0.8,0.2,0.9
		c0.3,0.1,0.8,0.1,1-0.1c0.6-0.5,1.1-1.1,1.7-1.7c0.1-0.1,0.3-0.1,0.5-0.2c0,0.1,0.1,0.3-0.1,0.5c-1.4,2.1-3.2,3.6-5.9,3.5
		c-2.1-0.1-3.6-1.5-3.2-3.6c0.3-2.2,1-4.3,1.6-6.5C-107.5,390.8-107,389.3-106.5,387.5z"/>
	<path d="M-101.7,378.5c1.7,0,3.1,1.4,3.1,3s-1.4,3.1-3.1,3.1c-1.6,0-3-1.4-3-3S-103.3,378.5-101.7,378.5z"/>
</g>
<g>
	<path d="M-49.2,390.8c-0.3,0-0.6-0.3-0.7-0.6c-0.4-0.7-0.8-1.4-1.4-2.1c-0.3-0.5-0.8-0.8-1.3-1.2c-0.4-0.3-0.6-0.6-0.3-1.1
		c0.2-0.4,0.7-0.5,1.2-0.2c0.8,0.4,1.4,1.2,2.1,1.9c0.4,0.5,0.4,0.6,0.8-0.1c1-1.9,2.4-3.5,4.1-4.8c0.8-0.6,1.7-1,2.6-1.4
		c0.6-0.2,1-0.1,1.2,0.4c0.1,0.4-0.1,0.9-0.6,1.1c-3.4,1.4-5.4,3.9-6.6,7.2C-48.4,390.4-48.6,390.8-49.2,390.8z"/>
	<path d="M-31.8,389.1c0.1,1-0.3,1.8-0.9,2c-0.5,0.2-1.2,0-1.5-0.4c-0.4-0.5-0.4-1.2,0.1-2.1C-33.4,388.9-32.6,389.2-31.8,389.1z
		 M-33.1,390.4c0.1,0,0.2,0,0.3,0c0.3,0,0.5-0.1,0.5-0.4c0.1-0.3-0.2-0.3-0.4-0.3c-0.3-0.1-0.6-0.2-1-0.3c-0.1-0.1-0.3-0.1-0.4,0.1
		c-0.1,0.2,0,0.3,0.1,0.5C-33.8,390.3-33.5,390.4-33.1,390.4z"/>
	<path d="M-60.5,379.5c0.3-1.2,1.4-0.5,2.1-0.9c-0.3-0.3-0.7-0.6-1.2-0.5c0.1-0.3,0.2-0.6,0.5-0.8c0.2,0.6,0.8,0.8,1.2,1
		c0.1,0.1,0.3,0.2,0.4,0.3s0.2,0.1,0.2,0.3c-0.1,0.2-0.2,0.2-0.3,0.2c-0.6,0.1-1.2,0.1-1.8,0.1c0.3,0.3,0.7,0.7,1.1,0.7
		c0.8,0,0.3,0.3,0.2,0.5c-0.1,0.1-0.1,0.2-0.2,0.2C-58.9,380-59.5,379.6-60.5,379.5z"/>
	<path d="M-35.4,376.3c0.4,0.3,0.6,0.6,0.3,1.1c-0.1,0.3-0.2,0.8-0.4,1.2c0.6-0.2,0.9-0.4,1-1c0.3,0.1,0.4,0.4,0.6,0.7
		c-0.8-0.1-1.2,0.6-1.7,0.9c-0.2,0.1-0.3,0.4-0.6,0.2c-0.2-0.2-0.1-0.4,0-0.6c0.1-0.5,0.3-1,0.5-1.5c-0.8,0.3-1,0.6-1.2,1.1
		c-0.1,0-0.2-0.1-0.3-0.2c-0.2-0.2-0.3-0.3,0.1-0.5C-36.4,377.4-35.7,377-35.4,376.3z"/>
	<path d="M-37.1,375.4c-0.1,0.8-0.8,1.4-1.5,1.2c-0.7-0.1-1.2-0.8-1-1.4c0.1-0.8,1-1.4,1.6-1.2C-37.5,374.1-37.1,374.7-37.1,375.4z
		 M-37.6,375c0.1-0.2,0-0.4-0.1-0.6c-0.1-0.1-0.3-0.2-0.6-0.1c-0.4,0.3-0.8,0.6-0.8,1.1c-0.1,0.2,0,0.4,0.2,0.6
		c0.2,0.1,0.4,0.1,0.6-0.1C-38,375.8-37.8,375.4-37.6,375z"/>
	<path d="M-46.3,373.6c-0.3,0.1-0.5,0.1-0.7,0.1c-0.3,0-0.5,0.1-0.3-0.3c0.1-0.1,0-0.3-0.1-0.4c-0.2-0.1-0.5-0.1-0.7,0.1
		c-0.1,0.1-0.1,0.3-0.1,0.4c0.1,0.1,0.2,0.2,0,0.3c-0.2,0.1-0.4,0.1-0.6,0c-0.2-0.1,0-0.3,0.1-0.3c0.2-0.6,0.3-1.2,0.6-1.7
		c0.1-0.2,0.1-0.5,0.4-0.5c0.3,0,0.3,0.2,0.5,0.4C-47,372.3-46.8,373-46.3,373.6z"/>
	<path d="M-34.9,395.8c-0.1,0.4-0.4,0.8-0.8,1c-0.1,0.1-0.3,0.1-0.4,0c-0.1-0.1-0.1-0.2-0.1-0.3c0-0.2,0.2-0.2,0.3-0.2
		c0.3,0,0.5-0.1,0.6-0.4c0.1-0.4-0.2-0.7-0.5-0.9c-0.3-0.2-0.6-0.3-1-0.3c-0.1,0.1-0.3,0.1-0.3,0.3c0,0.2,0.1,0.3,0.3,0.3
		c0.1,0.1,0.4-0.1,0.3,0.2c-0.1,0.3-0.3,0.6-0.6,0.6c-0.2,0.1-0.1-0.2-0.3-0.3c-0.6-0.4-0.4-0.9,0-1.3c0.4-0.5,1-0.6,1.5-0.3
		C-35.1,394.6-34.8,395.3-34.9,395.8z"/>
	<path d="M-43.5,399.1c-0.3,0.6-0.3,1.2-0.5,1.9c-0.1,0.2-0.1,0.4-0.3,0.5s-0.3-0.1-0.5-0.3c-0.3-0.6-0.6-1.2-1.1-1.7
		c-0.1-0.1-0.1-0.2,0.1-0.3c0.2-0.1,0.4-0.1,0.6-0.1c0.1,0,0.3,0,0.2,0.3c-0.1,0.2,0,0.4,0.2,0.5c0.2,0.1,0.4,0,0.6-0.1
		c0.2-0.1,0.2-0.3,0.1-0.5c-0.1-0.1-0.1-0.2,0-0.3c0.2-0.1,0.4-0.1,0.6-0.1C-43.3,398.9-43.5,399-43.5,399.1z"/>
	<path d="M-52,399.5c0.1-0.1,0.3-0.1,0.3,0c0.2,0.1,0.4,0.2,0.5-0.1c0.1-0.2,0.3-0.4,0.1-0.6c-0.1-0.2-0.3-0.3-0.6-0.1
		c-0.1,0.1-0.2,0.3-0.4,0.1c-0.1-0.1,0-0.2,0.1-0.3c0.1-0.2,0.2-0.2,0.4-0.1c0.4,0.1,0.9,0.3,1.3,0.5c0.2,0.1,0.3,0.1,0.1,0.4
		c-0.4,0.6-0.6,1.2-0.6,1.9c0,0.3-0.1,0.3-0.3,0.2c-0.4-0.1-0.8-0.3-1.2-0.4c-0.1,0-0.2-0.1-0.2-0.1c-0.1-0.2-0.1-0.4,0.1-0.5
		c0.2-0.1,0.2,0.1,0.3,0.2c0.1,0.2,0.2,0.3,0.4,0.3c0.2,0,0.3-0.2,0.3-0.4c0.1-0.2-0.1-0.3-0.3-0.4C-51.8,399.7-51.9,399.7-52,399.5
		z"/>
	<path d="M-33.5,381.8c-0.2,0-0.2-0.1-0.3-0.3c-0.1-0.2-0.2-0.3-0.4-0.3c-0.2,0.1-0.5,0.1-0.5,0.3c0,0.2,0.1,0.4,0.3,0.6
		c0.1,0.1,0.3,0,0.3,0.3c0,0.1-0.1,0.1-0.3,0.2c-0.2,0.1-0.3,0-0.4-0.2c-0.2-0.6-0.4-1-0.6-1.6c0.9,0.1,1.5-0.3,2.1-0.7
		c0.3-0.2,0.3-0.1,0.4,0.1c0.1,0.4,0.3,0.8,0.5,1.2c0.1,0.3-0.1,0.4-0.3,0.5c-0.2,0.1-0.3,0-0.2-0.2c0.1-0.3,0.1-0.5-0.1-0.7
		c-0.1-0.1-0.3,0-0.5,0.1c-0.3,0.1-0.1,0.4-0.1,0.6C-33.5,381.6-33.5,381.7-33.5,381.8z"/>
	<path d="M-54,397c0.3,0.1,0.8,0.3,0.9,0.8c0.1,0.2,0,0.4-0.2,0.5c-0.3,0.1-0.3-0.1-0.3-0.3c0-0.2-0.1-0.4-0.3-0.5
		c-0.1,0-0.2,0-0.3,0.1c-0.1,0.2,0,0.4,0.1,0.6c0.1,0.1,0.1,0.1,0.1,0.2c0.3,0.5,0.2,1-0.2,1.2c-0.3,0.2-1,0-1.2-0.4
		c-0.1-0.1-0.1-0.3,0-0.4c0.1-0.1,0.1-0.1,0.3-0.1c0.2,0,0.2,0.1,0.2,0.3s0.1,0.4,0.3,0.3c0.2-0.1,0.2-0.3,0.1-0.5
		c-0.1-0.2-0.3-0.4-0.3-0.7C-55.1,397.4-54.6,396.9-54,397z"/>
	<path d="M-34.3,384c0-0.2,0.1-0.3,0.3-0.5c0.1-0.1,0.3-0.1,0.3,0.1c0.1,0.1,0.1,0.2-0.1,0.3c-0.1,0.1-0.1,0.1-0.2,0.2
		c-0.1,0.2-0.1,0.4,0.1,0.6c0.2,0.1,0.4,0,0.5-0.3c0.1-0.3,0.2-0.5,0.3-0.8c0.1-0.3,0.4-0.4,0.8-0.3c0.3,0.1,0.5,0.3,0.6,0.6
		c0.1,0.3,0.1,0.6-0.1,0.8c-0.1,0.1-0.2,0.1-0.3,0.1c-0.1-0.1-0.2-0.2-0.1-0.4c0.1-0.1,0.4-0.4,0.1-0.6c-0.3-0.1-0.4,0.2-0.5,0.4
		c0,0,0,0.1-0.1,0.1c-0.2,0.7-0.6,0.9-1,0.8C-34.1,385.2-34.4,384.6-34.3,384z"/>
	<path d="M-50.3,372.1c-0.1,0.3-0.2,0.2-0.3,0.1c-0.1-0.1-0.2-0.1-0.3-0.1c-0.1,0.1-0.1,0.3,0,0.3c0.2,0.5,0.1,1.2,0.7,1.5
		c0.1,0.1,0.1,0.2-0.1,0.3c-0.1,0.1-0.3,0.1-0.5,0.2c-0.3,0.1-0.4,0.1-0.4-0.3c0.1-0.6-0.2-1.1-0.4-1.6c-0.1-0.3-0.3-0.1-0.4,0.1
		c-0.1,0.1,0,0.3-0.2,0.3c-0.1,0-0.1-0.1-0.1-0.2c-0.1-0.1-0.1-0.3,0.1-0.4c0.6-0.3,1.2-0.5,1.9-0.6
		C-50.4,371.6-50.3,371.9-50.3,372.1z"/>
	<path d="M-41,397.8c-0.1,0.8,0.3,1.4,0.7,1.9c0.1,0.2,0.3,0,0.3-0.1c0.1-0.1,0-0.3,0.1-0.3c0.1,0,0.2,0.1,0.3,0.3
		c0.1,0.1,0.1,0.3-0.1,0.4c-0.6,0.3-1.1,0.5-1.7,0.8c-0.2,0.1-0.3-0.1-0.3-0.2c-0.1-0.1-0.1-0.2-0.1-0.3c0.1-0.1,0.2,0,0.3,0.1
		c0.1,0.1,0.2,0.1,0.3,0c0.1-0.1,0.1-0.2,0-0.3c-0.3-0.5-0.3-1.1-0.8-1.5c-0.2-0.1-0.1-0.2,0.1-0.3C-41.6,398-41.4,397.8-41,397.8z"
		/>
	<path d="M-56.1,376.3c-0.3-0.4-0.1-1.1-0.8-1.2c-0.1,0-0.1-0.1,0-0.2c0.1-0.1,0.3-0.3,0.4-0.3c0.1-0.1,0.1,0.1,0.1,0.1
		c0.1,0.6,0.5,1.2,0.7,1.8c0.1,0.2,0.3,0.4,0.1,0.6c-0.3,0.2-0.5,0-0.7-0.1c-0.6-0.3-1.1-0.7-1.7-0.8c-0.2-0.1-0.2-0.1-0.1-0.3
		c0.1-0.1,0.3-0.3,0.5-0.5c0.1-0.1,0.2-0.1,0.3,0.1C-57,376.1-56.5,376.1-56.1,376.3z"/>
	<path d="M-47.2,401.7c-0.3,0-0.4,0.1-0.6,0c-0.2,0-0.6,0.1-0.3-0.5c0.2-0.4,0.1-1,0.2-1.6c0-0.1-0.1-0.3-0.3-0.3
		c-0.2-0.1-0.3-0.1-0.6,0.1c-0.1,0.1-0.1,0.3-0.3,0.3c-0.1-0.1-0.1-0.2-0.1-0.3c0-0.2,0.1-0.4,0.3-0.4c0.5,0,1,0.1,1.5,0.1
		c0.3,0.1,0.1,0.2,0.1,0.3C-47.4,400.1-47.4,401.2-47.2,401.7z"/>
	<path d="M-45,372.5c0.2-1,1.1-1.4,1.9-0.9c0.1,0.1,0.3,0.2,0.3,0.4c0,0.1-0.1,0.2-0.2,0.2c-0.2,0.1-0.3-0.1-0.3-0.3
		c-0.2-0.3-0.5-0.3-0.7-0.1c-0.3,0.4-0.4,0.8-0.3,1.3c0.1,0.3,0.4,0.4,0.7,0.4c0.1,0,0.3-0.2,0.4,0.1c0,0.2-0.2,0.2-0.4,0.3
		C-44.6,374.3-45.2,373.5-45,372.5z"/>
	<path d="M-37.2,398.3c-0.3,0.3-0.6,0.6-1,0.7c-0.2-0.9-0.7-1.5-1.4-2c0.1-0.2,0.3-0.3,0.4-0.4c0.2-0.2,0.4-0.5,0.6,0.1
		C-38.4,397.4-38,398-37.2,398.3z"/>
	<path d="M-35.3,391.8c0.6,0.7,1.3,1,2.2,1.2c0.1,0.2-0.1,0.4-0.2,0.6c-0.1,0.2-0.1,0.6-0.6,0.1c-0.3-0.5-1-0.8-1.6-0.8
		c-0.5,0-0.3-0.1-0.2-0.4C-35.5,392.2-35.5,392-35.3,391.8z"/>
	<path d="M-40.2,372.7c-0.6,0.6-0.9,1.2-1,2c-0.1,0.3-0.1,0.3-0.3,0.2c-0.1-0.1-0.3-0.1-0.4-0.2c-0.2-0.1-0.3-0.1-0.1-0.4
		c0.5-0.6,0.8-1.2,0.8-2.1C-40.8,372.3-40.5,372.5-40.2,372.7z"/>
	<path d="M-55.1,373.6c0.3-0.3,0.6-0.5,1-0.6c0.2,0.9,0.6,1.6,1.3,2.1c-0.3,0.3-0.6,0.4-1,0.7C-53.7,375.1-54.4,373.9-55.1,373.6z"
		/>
	<path d="M-59.1,382.9c-0.6-0.6-1.2-0.8-1.9-0.8c-0.6-0.1-0.5-0.3-0.3-0.6c0.1-0.1,0.1-0.3,0.2-0.5c0.6,0.6,1.3,0.8,2,0.8
		c0.4,0,0.4,0.1,0.3,0.3C-58.9,382.5-58.9,382.7-59.1,382.9z"/>
</g>
</svg>
